<svg width="117" height="31" viewBox="0 0 117 31" fill="none" xmlns="http://www.w3.org/2000/svg">
<path fill-rule="evenodd" clip-rule="evenodd" d="M17.5397 13.8281C17.5656 11.8027 18.6199 9.93178 20.333 8.87092C19.2474 7.30916 17.4941 6.35447 15.6022 6.29485C13.6117 6.08441 11.6821 7.49452 10.6678 7.49452C9.63384 7.49452 8.07216 6.31574 6.3905 6.35059C4.17786 6.42259 2.16509 7.65899 1.0886 9.60741C-1.20383 13.6051 0.506116 19.4804 2.70207 22.7118C3.80076 24.2942 5.08481 26.0617 6.76495 25.999C8.40908 25.9303 9.02313 24.943 11.0077 24.943C12.9739 24.943 13.55 25.999 15.2643 25.9592C17.0285 25.9303 18.14 24.3698 19.2002 22.7725C19.9896 21.645 20.597 20.3989 21 19.0803C18.9046 18.1876 17.5422 16.1196 17.5397 13.8281Z" fill="#222B40"/>
<path fill-rule="evenodd" clip-rule="evenodd" d="M14.3014 4.16748C15.2633 3.00436 15.7372 1.50938 15.6225 0C14.1528 0.155471 12.7953 0.862932 11.8204 1.98142C10.8577 3.08496 10.37 4.52868 10.4647 5.99461C11.9541 6.01005 13.3681 5.33662 14.3014 4.16748Z" fill="#222B40"/>
<path d="M32.4961 6.00094H34.2511C35.7061 6.00094 36.5161 5.09344 36.5161 3.57094C36.5161 2.03344 35.7661 1.20094 34.3261 1.20094H32.4961V6.00094ZM33.3136 5.32594V1.87594H34.1461C35.1961 1.87594 35.7061 2.25844 35.7136 3.56344C35.7136 4.86094 35.1586 5.32594 34.1011 5.32594H33.3136Z" fill="#222B40"/>
<path d="M39.5497 6.05344C41.4022 6.05344 41.8372 4.90594 41.8372 3.60844C41.8372 2.28094 41.4022 1.14844 39.5497 1.14844C37.7122 1.14844 37.2622 2.28094 37.2622 3.59344C37.2622 4.90594 37.7047 6.05344 39.5497 6.05344ZM38.1022 3.59344C38.1022 2.61094 38.3572 1.83094 39.5497 1.83094C40.7572 1.83094 41.0047 2.61094 41.0047 3.60844C41.0047 4.58344 40.7572 5.37094 39.5497 5.37094C38.3572 5.37094 38.1022 4.58344 38.1022 3.59344Z" fill="#222B40"/>
<path d="M43.612 6.00094H44.602L45.7645 2.10844L46.942 6.00094H47.932L49.387 1.20094H48.5545L47.452 5.12344L46.2745 1.20094H45.2995L44.1145 5.12344L43.0195 1.20094H42.1495L43.612 6.00094Z" fill="#222B40"/>
<path d="M50.0141 6.00094H50.8391V2.25094L53.3516 6.00094H54.3716V1.20094H53.5466V4.92094L51.0716 1.20094H50.0141V6.00094Z" fill="#222B40"/>
<path d="M55.4578 6.00094H58.1053V5.32594H56.2828V1.20094H55.4578V6.00094Z" fill="#222B40"/>
<path d="M60.6066 6.05344C62.4591 6.05344 62.8941 4.90594 62.8941 3.60844C62.8941 2.28094 62.4591 1.14844 60.6066 1.14844C58.7691 1.14844 58.3191 2.28094 58.3191 3.59344C58.3191 4.90594 58.7616 6.05344 60.6066 6.05344ZM59.1591 3.59344C59.1591 2.61094 59.4141 1.83094 60.6066 1.83094C61.8141 1.83094 62.0616 2.61094 62.0616 3.60844C62.0616 4.58344 61.8141 5.37094 60.6066 5.37094C59.4141 5.37094 59.1591 4.58344 59.1591 3.59344Z" fill="#222B40"/>
<path d="M63.1174 6.00094H63.9799L64.3249 5.06344H66.6799L67.0024 6.00094H67.8799L66.0799 1.20094H64.9624L63.1174 6.00094ZM64.5274 4.46344L65.5024 1.73344L66.4699 4.46344H64.5274Z" fill="#222B40"/>
<path d="M68.4264 6.00094H70.1814C71.6364 6.00094 72.4464 5.09344 72.4464 3.57094C72.4464 2.03344 71.6964 1.20094 70.2564 1.20094H68.4264V6.00094ZM69.2439 5.32594V1.87594H70.0764C71.1264 1.87594 71.6364 2.25844 71.6439 3.56344C71.6439 4.86094 71.0889 5.32594 70.0314 5.32594H69.2439Z" fill="#222B40"/>
<path d="M77.2396 6.05344C79.0921 6.05344 79.5271 4.90594 79.5271 3.60844C79.5271 2.28094 79.0921 1.14844 77.2396 1.14844C75.4021 1.14844 74.9521 2.28094 74.9521 3.59344C74.9521 4.90594 75.3946 6.05344 77.2396 6.05344ZM75.7921 3.59344C75.7921 2.61094 76.0471 1.83094 77.2396 1.83094C78.4471 1.83094 78.6946 2.61094 78.6946 3.60844C78.6946 4.58344 78.4471 5.37094 77.2396 5.37094C76.0471 5.37094 75.7921 4.58344 75.7921 3.59344Z" fill="#222B40"/>
<path d="M80.4659 6.00094H81.2909V2.25094L83.8034 6.00094H84.8234V1.20094H83.9984V4.92094L81.5234 1.20094H80.4659V6.00094Z" fill="#222B40"/>
<path d="M88.6141 6.00094H89.4166V1.87594H90.7966V1.20094H87.2341V1.87594H88.6141V6.00094Z" fill="#222B40"/>
<path d="M91.4423 6.00094H92.2673V3.88594H94.6223V6.00094H95.4548V1.20094H94.6223V3.21844H92.2673V1.20094H91.4423V6.00094Z" fill="#222B40"/>
<path d="M96.5124 6.00094H99.8499V5.32594H97.3299V3.88594H99.6174V3.21844H97.3299V1.87594H99.8499V1.20094H96.5124V6.00094Z" fill="#222B40"/>
<path d="M48.0621 17.0063C50.7866 17.0063 52.5826 19.0994 52.5826 22.3326C52.5826 25.5747 50.7971 27.6577 48.1026 27.6577C46.7099 27.7285 45.398 27.0196 44.725 25.8324H44.674V31H42.4705V17.1155H44.6034V18.8507H44.6439C45.3468 17.671 46.6601 16.9624 48.0621 17.0063ZM59.8775 17.0063C62.6021 17.0063 64.398 19.0994 64.398 22.3326C64.398 25.5747 62.6125 27.6577 59.918 27.6577C58.5253 27.7285 57.2134 27.0196 56.5404 25.8324H56.4894V31H54.2859V17.1155H56.4188V18.8507H56.4593C57.1622 17.671 58.4755 16.9624 59.8775 17.0063ZM75.697 13C78.8083 13 80.9412 14.6959 81.013 17.1649H78.7886C78.6555 15.7368 77.4408 14.8748 75.6657 14.8748C73.8906 14.8748 72.676 15.747 72.676 17.0164C72.676 18.0281 73.4518 18.6234 75.3496 19.0791L76.9718 19.4662C79.9929 20.1606 81.2481 21.34 81.2481 23.4331C81.2481 26.1103 79.0538 27.787 75.5638 27.787C72.2985 27.787 70.0938 26.1497 69.9514 23.5614L72.207 23.5615C72.3703 24.9805 73.7888 25.9123 75.7271 25.9123C77.5844 25.9123 78.9207 24.9805 78.9207 23.7009C78.9207 22.5902 78.1147 21.9252 76.2065 21.4694L74.2983 21.0226C71.5945 20.3879 70.3393 19.159 70.3393 17.1649C70.3393 14.6959 72.5533 13 75.697 13ZM94.3187 16.9872C97.4312 16.9872 99.4112 19.0499 99.4112 22.3326C99.4112 25.6242 97.4416 27.678 94.3187 27.678C91.1969 27.678 89.2273 25.6242 89.2273 22.3326C89.2273 19.0499 91.2166 16.9872 94.3187 16.9872ZM112.162 16.9872C115.132 16.9872 117 18.97 117 22.1334V22.8671H109.418V22.9965C109.347 23.7732 109.623 24.5421 110.176 25.1075C110.728 25.6729 111.504 25.9804 112.306 25.9517C113.375 26.0491 114.383 25.4523 114.785 24.4842L116.877 24.4842C116.581 26.3782 114.683 27.678 112.255 27.678C109.132 27.678 107.194 25.6445 107.194 22.3821C107.194 19.1096 109.142 16.9872 112.162 16.9872ZM86.0036 14.6464V17.1155H88.0451V18.8114H86.0036V24.563C86.0036 25.4565 86.4124 25.8729 87.3098 25.8729C87.5521 25.8688 87.7941 25.8523 88.0346 25.8234V27.5091C87.6312 27.5824 87.2211 27.6156 86.8107 27.6082C84.6373 27.6082 83.7897 26.8148 83.7897 24.7914V18.8114H82.2288V17.1155H83.7897V14.6464H86.0036ZM35.7858 13.2386L41.1019 27.5486H38.6841L37.3375 23.6807H31.725L30.3772 27.5486H28L33.316 13.2386H35.7858ZM105.963 17.0063C106.217 17.0054 106.47 17.0322 106.718 17.0862V19.0893C106.397 18.9941 106.063 18.9504 105.728 18.9599C105.08 18.9344 104.453 19.1853 104.011 19.6468C103.57 20.1082 103.358 20.7342 103.431 21.3603V27.5486H101.228V17.1155H103.33V18.8912H103.381C103.674 17.7481 104.751 16.9613 105.963 17.0063ZM94.3187 18.7517C92.5332 18.7517 91.4725 20.0909 91.4725 22.3326C91.4725 24.5934 92.5332 25.9123 94.3187 25.9123C96.1042 25.9123 97.166 24.5934 97.166 22.3326C97.166 20.0808 96.1042 18.7517 94.3187 18.7517ZM47.4808 18.8316C45.7972 18.8316 44.6648 20.2496 44.6648 22.3326C44.6648 24.4347 45.7972 25.8425 47.4808 25.8425C49.1946 25.8425 50.3177 24.464 50.3177 22.3326C50.3177 20.2203 49.1945 18.8316 47.4808 18.8316ZM59.2962 18.8316C57.6126 18.8316 56.4802 20.2496 56.4802 22.3326C56.4802 24.4347 57.6126 25.8425 59.2962 25.8425C61.01 25.8425 62.1331 24.464 62.1331 22.3326C62.1331 20.2203 61.0099 18.8316 59.2962 18.8316ZM34.562 15.6187H34.5006L32.3063 21.8959H36.7551L34.562 15.6187ZM112.162 18.7225C111.437 18.7183 110.741 18.9956 110.228 19.4928C109.714 19.9901 109.426 20.666 109.428 21.3704H114.795C114.835 20.6725 114.574 19.9899 114.074 19.4873C113.574 18.9847 112.881 18.7074 112.162 18.7225Z" fill="#222B40"/>
</svg>
