<svg width="86" height="40" viewBox="0 0 86 40" fill="none" xmlns="http://www.w3.org/2000/svg">
<path fill-rule="evenodd" clip-rule="evenodd" d="M36.1676 32.05L6.26662e-07 32.05L3.44604e-06 -0.000427089L86 -0.000419617L86 32.05L50.5039 32.05L43.3357 39.1738L36.1676 32.05Z" fill="white"/>
<g opacity="0.85">
<path d="M22.2305 12.3217H23.155V17.4177C23.155 18.1584 22.9758 18.7246 22.6175 19.1164C22.2663 19.501 21.7431 19.6933 21.048 19.6933C20.7541 19.6933 20.4675 19.647 20.188 19.5544C19.9085 19.4618 19.6935 19.355 19.543 19.2339V18.1869C19.973 18.5929 20.4388 18.7959 20.9405 18.7959C21.3346 18.7959 21.6464 18.6783 21.8757 18.4433C22.1122 18.2012 22.2305 17.8522 22.2305 17.3963V12.3217Z" fill="#222B40"/>
<path d="M29.3946 12.3217H30.3191V16.9904C30.3191 17.8165 30.079 18.4754 29.5988 18.9668C29.1258 19.4511 28.4844 19.6933 27.6746 19.6933C26.8576 19.6933 26.209 19.4511 25.7288 18.9668C25.2558 18.4754 25.0193 17.8165 25.0193 16.9904V12.3217H25.9438V17.0545C25.9438 17.5744 26.1015 17.9946 26.4168 18.3151C26.7322 18.6356 27.1514 18.7959 27.6746 18.7959C28.1906 18.7959 28.6063 18.6356 28.9216 18.3151C29.2369 17.9946 29.3946 17.5744 29.3946 17.0545V12.3217Z" fill="#222B40"/>
<path d="M36.1808 19.5864H32.2463V12.3217H33.1708V18.7104H36.1808V19.5864Z" fill="#222B40"/>
<path d="M41.9714 13.1123C41.5056 13.1123 41.1329 13.2618 40.8534 13.561C40.5739 13.8601 40.4342 14.2411 40.4342 14.7041V17.204C40.4342 17.667 40.5739 18.048 40.8534 18.3472C41.1329 18.6463 41.5056 18.7959 41.9714 18.7959C42.4444 18.7959 42.8207 18.6463 43.1002 18.3472C43.3797 18.048 43.5194 17.667 43.5194 17.204V14.7041C43.5194 14.2411 43.3797 13.8601 43.1002 13.561C42.8207 13.2618 42.4444 13.1123 41.9714 13.1123ZM41.9714 12.2148C42.6881 12.2148 43.2793 12.4499 43.7452 12.92C44.211 13.3829 44.4439 13.9669 44.4439 14.672V17.2254C44.4439 17.9376 44.211 18.5288 43.7452 18.9989C43.2793 19.4618 42.6881 19.6933 41.9714 19.6933C41.2619 19.6933 40.6742 19.4618 40.2084 18.9989C39.7426 18.5288 39.5097 17.9376 39.5097 17.2254V14.672C39.5097 13.9669 39.7426 13.3829 40.2084 12.92C40.6742 12.4499 41.2619 12.2148 41.9714 12.2148Z" fill="#222B40"/>
<path d="M49.8937 13.1977H47.432L47.1955 15.0566H47.432C48.206 15.0566 48.8223 15.2596 49.281 15.6656C49.7468 16.0716 49.9797 16.6164 49.9797 17.3002C49.9797 18.0551 49.7432 18.6427 49.2702 19.063C48.8044 19.4832 48.2168 19.6933 47.5073 19.6933C46.8479 19.6933 46.2423 19.5081 45.6905 19.1377V17.9946C46.2423 18.5145 46.8336 18.7745 47.4642 18.7745C47.9014 18.7745 48.2705 18.6392 48.5715 18.3685C48.8725 18.0979 49.023 17.7418 49.023 17.3002C49.023 16.8444 48.8546 16.4989 48.5177 16.2639C48.1809 16.0288 47.7402 15.9113 47.1955 15.9113H46.2172L46.6042 12.3217H49.8937V13.1977Z" fill="#222B40"/>
<path d="M54.9913 16.9583H52.2715V16.125H54.9913V16.9583Z" fill="#222B40"/>
<path d="M57.151 19.5864V18.7104H58.9893V13.1977H57.3445V12.3217H59.9138V18.7104H61.4725V19.5864H57.151Z" fill="#222B40"/>
<path d="M62.1821 19.5864V18.7104H64.0203V13.1977H62.3756V12.3217H64.9448V18.7104H66.5036V19.5864H62.1821Z" fill="#222B40"/>
</g>
</svg>
