<svg width="51" height="65" viewBox="0 0 51 65" fill="none" xmlns="http://www.w3.org/2000/svg">
<mask id="path-1-outside-1_2814_1705" maskUnits="userSpaceOnUse" x="0" y="0" width="51" height="65" fill="black">
<rect fill="white" width="51" height="65"/>
<path fill-rule="evenodd" clip-rule="evenodd" d="M49.7525 46.2015L33.7649 55.0542C33.7596 55.0589 33.754 55.0635 33.7472 55.0672L17.7478 63.9356L17.7459 63.9366C17.7421 63.9392 17.7376 63.9401 17.7331 63.941C17.7295 63.9417 17.7257 63.9425 17.7222 63.9442C17.6551 63.9773 17.5822 64 17.5013 64C17.4205 64 17.3465 63.9763 17.2804 63.9432C17.2735 63.9404 17.2647 63.9413 17.2578 63.9366L17.2548 63.9356L1.24948 55.0672C1.23868 55.0612 1.23083 55.0534 1.2229 55.0454C1.21708 55.0395 1.21122 55.0337 1.20412 55.0284C1.17651 55.0095 1.14989 54.9887 1.12721 54.965C1.10771 54.9428 1.09346 54.9197 1.07869 54.8957L1.07593 54.8912C1.05917 54.8647 1.04536 54.8392 1.03451 54.8099C1.0272 54.7874 1.0226 54.7644 1.01789 54.7409C1.01625 54.7327 1.0146 54.7245 1.01282 54.7162C1.01155 54.7072 1.00901 54.699 1.00652 54.6909C1.00321 54.6802 1 54.6698 1 54.6585V36.9214C1 36.9155 1.00158 36.9102 1.00312 36.905C1.00431 36.9011 1.00549 36.8971 1.00592 36.893C1.0069 36.8731 1.01085 36.8533 1.01479 36.8334C1.01873 36.8107 1.02465 36.7899 1.03254 36.769C1.03944 36.7482 1.04733 36.7293 1.05818 36.7104C1.05996 36.707 1.06094 36.703 1.06193 36.6989C1.06313 36.694 1.06435 36.689 1.06706 36.6848C1.06952 36.681 1.07297 36.678 1.07643 36.6749C1.07988 36.6718 1.08333 36.6687 1.08579 36.665C1.09861 36.647 1.11044 36.6309 1.12523 36.6148L1.12659 36.6134C1.1428 36.597 1.1573 36.5822 1.17553 36.5675C1.19229 36.5533 1.20708 36.5419 1.22483 36.5306C1.2282 36.5282 1.23122 36.525 1.23426 36.5219C1.23832 36.5177 1.24243 36.5134 1.24751 36.5107L17.0063 27.7861V10.3274C17.0063 10.3221 17.0078 10.3172 17.0093 10.3125C17.0108 10.308 17.0122 10.3036 17.0122 10.299C17.0132 10.2782 17.0161 10.2583 17.0211 10.2384C17.026 10.2167 17.0309 10.1959 17.0388 10.175C17.0457 10.1542 17.0536 10.1353 17.0645 10.1164C17.0663 10.1129 17.0673 10.109 17.0683 10.105C17.0695 10.1003 17.0707 10.0954 17.0733 10.0908C17.0758 10.087 17.0793 10.084 17.0827 10.0809C17.0862 10.0778 17.0896 10.0747 17.0921 10.071C17.1049 10.053 17.1167 10.0369 17.1325 10.0208C17.1483 10.0028 17.1641 9.98768 17.1828 9.97254C17.1986 9.95929 17.2134 9.94794 17.2311 9.93753C17.2343 9.9352 17.2371 9.93224 17.2399 9.92923C17.2439 9.92489 17.248 9.92045 17.2538 9.91766L33.2532 1.05583C33.2634 1.04983 33.274 1.04728 33.2845 1.04476C33.2922 1.0429 33.2999 1.04105 33.3074 1.03785C33.3409 1.0246 33.3725 1.0123 33.408 1.00568C33.4385 1 33.4691 1 33.4997 1C33.5312 1 33.5618 1 33.5924 1.00568C33.6279 1.0123 33.6585 1.02366 33.69 1.0369C33.6988 1.04069 33.7075 1.04279 33.7162 1.04487C33.7271 1.04748 33.7378 1.05005 33.7482 1.05583L49.7525 9.91766C49.7564 9.92002 49.7596 9.92334 49.7628 9.92665C49.7661 9.92996 49.7693 9.93327 49.7732 9.93564C49.7919 9.94699 49.8087 9.96024 49.8255 9.97443C49.8432 9.98863 49.859 10.0038 49.8738 10.0208C49.8896 10.0369 49.9014 10.053 49.9142 10.071C49.9167 10.0747 49.9201 10.0778 49.9236 10.0809C49.927 10.084 49.9305 10.087 49.9329 10.0908C49.9357 10.0951 49.9369 10.1 49.9382 10.1049C49.9391 10.1088 49.9401 10.1127 49.9418 10.1164C49.9517 10.1353 49.9596 10.1552 49.9675 10.175C49.9753 10.1968 49.9803 10.2176 49.9852 10.2394C49.9901 10.2593 49.9921 10.2791 49.9941 10.299C49.9941 10.3036 49.9955 10.308 49.9969 10.3125C49.9984 10.3172 50 10.3221 50 10.3274V45.7917C50 45.8126 49.9901 45.8296 49.9882 45.8495C49.9832 45.8826 49.9783 45.9138 49.9675 45.9441C49.9566 45.9734 49.9428 45.999 49.926 46.0255C49.9103 46.051 49.8945 46.0756 49.8738 46.0993C49.8521 46.1229 49.8255 46.1428 49.7979 46.1627C49.7908 46.1679 49.7849 46.1738 49.7791 46.1796C49.7711 46.1876 49.7633 46.1955 49.7525 46.2015ZM33.0086 37.7434L33.0077 37.7439V54.3816L17.9953 62.7035V46.0652L33.0086 37.7409V37.7434ZM33.9937 37.1985V37.1939L49.0119 28.879V45.5183L33.9947 53.8326V37.1979L33.9937 37.1985ZM33.5007 2.01156L48.5189 10.3274L33.5007 18.6498L18.4874 10.3274L33.5007 2.01156ZM49.0129 27.7861L33.9947 36.101V19.4703L49.0129 11.1478V27.7861ZM17.5023 28.6065L32.5156 36.9214L17.5023 45.2457L2.4821 36.9214L17.5023 28.6065Z"/>
</mask>
<path fill-rule="evenodd" clip-rule="evenodd" d="M49.7525 46.2015L33.7649 55.0542C33.7596 55.0589 33.754 55.0635 33.7472 55.0672L17.7478 63.9356L17.7459 63.9366C17.7421 63.9392 17.7376 63.9401 17.7331 63.941C17.7295 63.9417 17.7257 63.9425 17.7222 63.9442C17.6551 63.9773 17.5822 64 17.5013 64C17.4205 64 17.3465 63.9763 17.2804 63.9432C17.2735 63.9404 17.2647 63.9413 17.2578 63.9366L17.2548 63.9356L1.24948 55.0672C1.23868 55.0612 1.23083 55.0534 1.2229 55.0454C1.21708 55.0395 1.21122 55.0337 1.20412 55.0284C1.17651 55.0095 1.14989 54.9887 1.12721 54.965C1.10771 54.9428 1.09346 54.9197 1.07869 54.8957L1.07593 54.8912C1.05917 54.8647 1.04536 54.8392 1.03451 54.8099C1.0272 54.7874 1.0226 54.7644 1.01789 54.7409C1.01625 54.7327 1.0146 54.7245 1.01282 54.7162C1.01155 54.7072 1.00901 54.699 1.00652 54.6909C1.00321 54.6802 1 54.6698 1 54.6585V36.9214C1 36.9155 1.00158 36.9102 1.00312 36.905C1.00431 36.9011 1.00549 36.8971 1.00592 36.893C1.0069 36.8731 1.01085 36.8533 1.01479 36.8334C1.01873 36.8107 1.02465 36.7899 1.03254 36.769C1.03944 36.7482 1.04733 36.7293 1.05818 36.7104C1.05996 36.707 1.06094 36.703 1.06193 36.6989C1.06313 36.694 1.06435 36.689 1.06706 36.6848C1.06952 36.681 1.07297 36.678 1.07643 36.6749C1.07988 36.6718 1.08333 36.6687 1.08579 36.665C1.09861 36.647 1.11044 36.6309 1.12523 36.6148L1.12659 36.6134C1.1428 36.597 1.1573 36.5822 1.17553 36.5675C1.19229 36.5533 1.20708 36.5419 1.22483 36.5306C1.2282 36.5282 1.23122 36.525 1.23426 36.5219C1.23832 36.5177 1.24243 36.5134 1.24751 36.5107L17.0063 27.7861V10.3274C17.0063 10.3221 17.0078 10.3172 17.0093 10.3125C17.0108 10.308 17.0122 10.3036 17.0122 10.299C17.0132 10.2782 17.0161 10.2583 17.0211 10.2384C17.026 10.2167 17.0309 10.1959 17.0388 10.175C17.0457 10.1542 17.0536 10.1353 17.0645 10.1164C17.0663 10.1129 17.0673 10.109 17.0683 10.105C17.0695 10.1003 17.0707 10.0954 17.0733 10.0908C17.0758 10.087 17.0793 10.084 17.0827 10.0809C17.0862 10.0778 17.0896 10.0747 17.0921 10.071C17.1049 10.053 17.1167 10.0369 17.1325 10.0208C17.1483 10.0028 17.1641 9.98768 17.1828 9.97254C17.1986 9.95929 17.2134 9.94794 17.2311 9.93753C17.2343 9.9352 17.2371 9.93224 17.2399 9.92923C17.2439 9.92489 17.248 9.92045 17.2538 9.91766L33.2532 1.05583C33.2634 1.04983 33.274 1.04728 33.2845 1.04476C33.2922 1.0429 33.2999 1.04105 33.3074 1.03785C33.3409 1.0246 33.3725 1.0123 33.408 1.00568C33.4385 1 33.4691 1 33.4997 1C33.5312 1 33.5618 1 33.5924 1.00568C33.6279 1.0123 33.6585 1.02366 33.69 1.0369C33.6988 1.04069 33.7075 1.04279 33.7162 1.04487C33.7271 1.04748 33.7378 1.05005 33.7482 1.05583L49.7525 9.91766C49.7564 9.92002 49.7596 9.92334 49.7628 9.92665C49.7661 9.92996 49.7693 9.93327 49.7732 9.93564C49.7919 9.94699 49.8087 9.96024 49.8255 9.97443C49.8432 9.98863 49.859 10.0038 49.8738 10.0208C49.8896 10.0369 49.9014 10.053 49.9142 10.071C49.9167 10.0747 49.9201 10.0778 49.9236 10.0809C49.927 10.084 49.9305 10.087 49.9329 10.0908C49.9357 10.0951 49.9369 10.1 49.9382 10.1049C49.9391 10.1088 49.9401 10.1127 49.9418 10.1164C49.9517 10.1353 49.9596 10.1552 49.9675 10.175C49.9753 10.1968 49.9803 10.2176 49.9852 10.2394C49.9901 10.2593 49.9921 10.2791 49.9941 10.299C49.9941 10.3036 49.9955 10.308 49.9969 10.3125C49.9984 10.3172 50 10.3221 50 10.3274V45.7917C50 45.8126 49.9901 45.8296 49.9882 45.8495C49.9832 45.8826 49.9783 45.9138 49.9675 45.9441C49.9566 45.9734 49.9428 45.999 49.926 46.0255C49.9103 46.051 49.8945 46.0756 49.8738 46.0993C49.8521 46.1229 49.8255 46.1428 49.7979 46.1627C49.7908 46.1679 49.7849 46.1738 49.7791 46.1796C49.7711 46.1876 49.7633 46.1955 49.7525 46.2015ZM33.0086 37.7434L33.0077 37.7439V54.3816L17.9953 62.7035V46.0652L33.0086 37.7409V37.7434ZM33.9937 37.1985V37.1939L49.0119 28.879V45.5183L33.9947 53.8326V37.1979L33.9937 37.1985ZM33.5007 2.01156L48.5189 10.3274L33.5007 18.6498L18.4874 10.3274L33.5007 2.01156ZM49.0129 27.7861L33.9947 36.101V19.4703L49.0129 11.1478V27.7861ZM17.5023 28.6065L32.5156 36.9214L17.5023 45.2457L2.4821 36.9214L17.5023 28.6065Z" fill="#583BAC"/>
<path d="M18.0438 46.1527L33.0561 37.8314L32.9592 37.6565L17.9468 45.9777L18.0438 46.1527ZM49.7525 46.2015L49.8494 46.3764L49.8496 46.3763L49.7525 46.2015ZM33.7649 55.0542L33.668 54.8792L33.6473 54.8907L33.6298 54.9066L33.7649 55.0542ZM33.7472 55.0672L33.8442 55.2422L33.8444 55.2421L33.7472 55.0672ZM17.7478 63.9356L17.8348 64.1161L17.8448 64.1106L17.7478 63.9356ZM17.7459 63.9366L17.659 63.7564L17.6453 63.7631L17.6328 63.7717L17.7459 63.9366ZM17.7331 63.941L17.694 63.7449L17.6938 63.7449L17.7331 63.941ZM17.7222 63.9442L17.6357 63.7638L17.6336 63.7649L17.7222 63.9442ZM17.2804 63.9432L17.3701 63.7644L17.3634 63.7611L17.3565 63.7583L17.2804 63.9432ZM17.2578 63.9366L17.3709 63.7717L17.3467 63.7551L17.3188 63.7462L17.2578 63.9366ZM17.2548 63.9356L17.1579 64.1106L17.175 64.1201L17.1937 64.1261L17.2548 63.9356ZM1.24948 55.0672L1.15235 55.2421L1.15255 55.2422L1.24948 55.0672ZM1.2229 55.0454L1.36465 54.9043L1.36462 54.9043L1.2229 55.0454ZM1.20412 55.0284L1.32251 54.8671L1.3172 54.8635L1.20412 55.0284ZM1.12721 54.965L0.976564 55.0969L0.98283 55.1034L1.12721 54.965ZM1.07869 54.8957L1.24893 54.7907L1.2489 54.7907L1.07869 54.8957ZM1.07593 54.8912L1.24614 54.7862L1.24494 54.7843L1.07593 54.8912ZM1.03451 54.8099L0.844194 54.8718L0.846927 54.8792L1.03451 54.8099ZM1.01789 54.7409L1.214 54.7016H1.214L1.01789 54.7409ZM1.01282 54.7162L0.81432 54.7444L0.817268 54.7581L1.01282 54.7162ZM1.00652 54.6909L1.19764 54.632L1.19764 54.632L1.00652 54.6909ZM1.00312 36.905L1.19477 36.9622L1.19477 36.9622L1.00312 36.905ZM1.00592 36.893L1.20513 36.9138L1.20567 36.9029L1.00592 36.893ZM1.01479 36.8334L1.21102 36.8724L1.21184 36.8676L1.01479 36.8334ZM1.03254 36.769L1.21973 36.84L1.22238 36.832L1.03254 36.769ZM1.05818 36.7104L1.23183 36.8099L1.23557 36.8028L1.05818 36.7104ZM1.06193 36.6989L0.867644 36.6514H0.867644L1.06193 36.6989ZM1.06706 36.6848L0.899468 36.5757L0.899463 36.5757L1.06706 36.6848ZM1.07643 36.6749L1.20944 36.8242L1.20948 36.8242L1.07643 36.6749ZM1.08579 36.665L0.922799 36.5488L0.918224 36.5558L1.08579 36.665ZM1.12523 36.6148L0.98257 36.4745L0.978025 36.4794L1.12523 36.6148ZM1.12659 36.6134L0.984035 36.4731L0.984009 36.4732L1.12659 36.6134ZM1.17553 36.5675L1.30127 36.7231L1.30476 36.7201L1.17553 36.5675ZM1.22483 36.5306L1.33276 36.6993L1.3416 36.693L1.22483 36.5306ZM1.23426 36.5219L1.37811 36.6608L1.37814 36.6608L1.23426 36.5219ZM1.24751 36.5107L1.3416 36.6872L1.34438 36.6857L1.24751 36.5107ZM17.0063 27.7861L17.1032 27.9611L17.2063 27.904V27.7861H17.0063ZM17.0093 10.3125L17.1998 10.3736L17.1998 10.3736L17.0093 10.3125ZM17.0122 10.299L16.8122 10.2895V10.299H17.0122ZM17.0211 10.2384L17.2152 10.2866L17.2161 10.2826L17.0211 10.2384ZM17.0388 10.175L17.226 10.246L17.2287 10.238L17.0388 10.175ZM17.0645 10.1164L17.2381 10.2159L17.2418 10.2088L17.0645 10.1164ZM17.0683 10.105L16.8743 10.0561L16.8743 10.0561L17.0683 10.105ZM17.0733 10.0908L16.9055 9.98151L16.9002 9.99063L17.0733 10.0908ZM17.0827 10.0809L16.9496 9.93157L16.9496 9.93159L17.0827 10.0809ZM17.0921 10.071L16.9291 9.95475L16.9245 9.96183L17.0921 10.071ZM17.1325 10.0208L17.2755 10.1611L17.2828 10.1527L17.1325 10.0208ZM17.1828 9.97254L17.3085 10.1281L17.3114 10.1257L17.1828 9.97254ZM17.2311 9.93753L17.3323 10.1101L17.3404 10.1053L17.3479 10.0999L17.2311 9.93753ZM17.2399 9.92923L17.3868 10.0649L17.3868 10.0649L17.2399 9.92923ZM17.2538 9.91766L17.3405 10.0983L17.3507 10.0926L17.2538 9.91766ZM33.2532 1.05583L33.3501 1.23084L33.3543 1.22836L33.2532 1.05583ZM33.2845 1.04476L33.2377 0.850297L33.2377 0.850299L33.2845 1.04476ZM33.3074 1.03785L33.2339 0.851776L33.2289 0.853884L33.3074 1.03785ZM33.408 1.00568L33.3715 0.809041L33.3713 0.809071L33.408 1.00568ZM33.5924 1.00568L33.6291 0.809071L33.6289 0.80904L33.5924 1.00568ZM33.69 1.0369L33.7693 0.85328L33.7674 0.852496L33.69 1.0369ZM33.7162 1.04487L33.7629 0.850395L33.7629 0.850392L33.7162 1.04487ZM33.7482 1.05583L33.6511 1.23066L33.6513 1.2308L33.7482 1.05583ZM49.7525 9.91766L49.8554 9.74603L49.8494 9.74269L49.7525 9.91766ZM49.7732 9.93564L49.8769 9.7646L49.8761 9.76411L49.7732 9.93564ZM49.8255 9.97443L49.6962 10.1271L49.7005 10.1306L49.8255 9.97443ZM49.8738 10.0208L49.7225 10.1522L49.731 10.1609L49.8738 10.0208ZM49.9142 10.071L50.082 9.96177L50.0771 9.95484L49.9142 10.071ZM49.9236 10.0809L50.0566 9.93157L50.0566 9.93155L49.9236 10.0809ZM49.9329 10.0908L49.7653 10.1999L49.7654 10.2L49.9329 10.0908ZM49.9382 10.1049L50.1323 10.0566L50.1322 10.0565L49.9382 10.1049ZM49.9418 10.1164L49.7602 10.2006L49.7645 10.2088L49.9418 10.1164ZM49.9675 10.175L50.1556 10.1069L50.1534 10.1013L49.9675 10.175ZM49.9852 10.2394L49.7901 10.2836L49.7911 10.2876L49.9852 10.2394ZM49.9941 10.299H50.1941V10.2891L50.1931 10.2792L49.9941 10.299ZM49.9969 10.3125L49.8065 10.3735L49.8065 10.3736L49.9969 10.3125ZM49.9882 45.8495L50.1862 45.8789L50.1872 45.8692L49.9882 45.8495ZM49.9675 45.9441L50.1551 46.0134L50.1557 46.0116L49.9675 45.9441ZM49.926 46.0255L49.757 45.9185L49.7559 45.9204L49.926 46.0255ZM49.8738 46.0993L50.0212 46.2345L50.0243 46.231L49.8738 46.0993ZM49.7979 46.1627L49.681 46.0003L49.6795 46.0015L49.7979 46.1627ZM49.7791 46.1796L49.6374 46.0385L49.6373 46.0385L49.7791 46.1796ZM33.0086 37.7434L33.105 37.9186L33.2086 37.8616V37.7434H33.0086ZM33.0077 37.7439L32.9112 37.5687L32.8077 37.6257V37.7439H33.0077ZM33.0077 54.3816L33.1046 54.5565L33.2077 54.4994V54.3816H33.0077ZM17.9953 62.7035H17.7953V63.043L18.0923 62.8784L17.9953 62.7035ZM17.9953 46.0652L17.8983 45.8903L17.7953 45.9474V46.0652H17.9953ZM33.0086 37.7409H33.2086V37.4013L32.9116 37.566L33.0086 37.7409ZM33.9937 37.1939L33.8968 37.019L33.7937 37.076V37.1939H33.9937ZM33.9937 37.1985H33.7937V37.5369L34.0902 37.3737L33.9937 37.1985ZM49.0119 28.879H49.2119V28.5397L48.9151 28.7041L49.0119 28.879ZM49.0119 45.5183L49.1088 45.6932L49.2119 45.6361V45.5183H49.0119ZM33.9947 53.8326H33.7947V54.1719L34.0916 54.0076L33.9947 53.8326ZM33.9947 37.1979H34.1947V36.8595L33.8983 37.0227L33.9947 37.1979ZM48.5189 10.3274L48.6158 10.5023L48.9316 10.3273L48.6158 10.1524L48.5189 10.3274ZM33.5007 2.01156L33.5976 1.8366L33.5007 1.78294L33.4038 1.83661L33.5007 2.01156ZM33.5007 18.6498L33.4037 18.8248L33.5007 18.8785L33.5976 18.8248L33.5007 18.6498ZM18.4874 10.3274L18.3905 10.1524L18.0747 10.3273L18.3904 10.5023L18.4874 10.3274ZM33.9947 36.101H33.7947V36.4403L34.0916 36.276L33.9947 36.101ZM49.0129 27.7861L49.1098 27.9611L49.2129 27.904V27.7861H49.0129ZM33.9947 19.4703L33.8978 19.2953L33.7947 19.3524V19.4703H33.9947ZM49.0129 11.1478H49.2129V10.8083L48.916 10.9729L49.0129 11.1478ZM32.5156 36.9214L32.6126 37.0963L32.9282 36.9213L32.6125 36.7464L32.5156 36.9214ZM17.5023 28.6065L17.5992 28.4316L17.5023 28.3779L17.4054 28.4315L17.5023 28.6065ZM17.5023 45.2457L17.4053 45.4207L17.5023 45.4744L17.5993 45.4207L17.5023 45.2457ZM2.4821 36.9214L2.38524 36.7464L2.06933 36.9213L2.38515 37.0963L2.4821 36.9214ZM33.8444 55.2421C33.8698 55.228 33.8882 55.2124 33.8999 55.2017L33.6298 54.9066C33.6311 54.9055 33.6383 54.899 33.6501 54.8924L33.8444 55.2421ZM17.8448 64.1106L33.8442 55.2422L33.6503 54.8923L17.6509 63.7607L17.8448 64.1106ZM17.8327 64.1168L17.8347 64.1158L17.661 63.7555L17.659 63.7564L17.8327 64.1168ZM17.7723 64.1371C17.7727 64.137 17.785 64.1348 17.7985 64.1306C17.8136 64.126 17.8357 64.1175 17.859 64.1015L17.6328 63.7717C17.6523 63.7583 17.6702 63.7516 17.681 63.7483C17.6902 63.7454 17.6981 63.744 17.694 63.7449L17.7723 64.1371ZM17.8087 64.1245C17.7961 64.1305 17.7855 64.1338 17.7793 64.1354C17.774 64.1368 17.7696 64.1377 17.7725 64.1371L17.6938 63.7449C17.693 63.7451 17.6849 63.7466 17.6759 63.749C17.6661 63.7517 17.6518 63.7561 17.6357 63.7639L17.8087 64.1245ZM17.5013 64.2C17.621 64.2 17.7245 64.1661 17.8108 64.1235L17.6336 63.7649C17.5858 63.7885 17.5433 63.8 17.5013 63.8V64.2ZM17.1908 64.122C17.2758 64.1646 17.3807 64.2 17.5013 64.2V63.8C17.4602 63.8 17.4172 63.7881 17.3701 63.7644L17.1908 64.122ZM17.1446 64.1015C17.1657 64.116 17.1858 64.1244 17.2014 64.1294C17.2162 64.1343 17.2286 64.1366 17.2337 64.1375C17.2351 64.1377 17.2363 64.1379 17.237 64.1381C17.2374 64.1381 17.2378 64.1382 17.238 64.1382C17.2383 64.1383 17.2384 64.1383 17.2385 64.1383C17.2391 64.1384 17.2376 64.1382 17.2355 64.1377C17.2316 64.137 17.2195 64.1344 17.2043 64.1282L17.3565 63.7583C17.3469 63.7543 17.3383 63.7516 17.3314 63.7496C17.3245 63.7477 17.3186 63.7464 17.3144 63.7456C17.3104 63.7448 17.307 63.7442 17.3056 63.744C17.3033 63.7436 17.3042 63.7437 17.3045 63.7438C17.3056 63.744 17.3141 63.7455 17.3251 63.749C17.3368 63.7529 17.3533 63.7596 17.3709 63.7717L17.1446 64.1015ZM17.1937 64.1261L17.1967 64.127L17.3188 63.7462L17.3159 63.7452L17.1937 64.1261ZM1.15255 55.2422L17.1579 64.1106L17.3517 63.7607L1.34642 54.8923L1.15255 55.2422ZM1.08115 55.1865C1.08712 55.1925 1.1134 55.2204 1.15235 55.2421L1.34661 54.8924C1.35601 54.8976 1.36256 54.9029 1.36585 54.9057C1.36737 54.907 1.36817 54.9078 1.36792 54.9076C1.36749 54.9071 1.36686 54.9065 1.36465 54.9043L1.08115 55.1865ZM1.0858 55.1897C1.08155 55.1866 1.07882 55.1841 1.07806 55.1834C1.0777 55.1831 1.07781 55.1831 1.08119 55.1865L1.36462 54.9043C1.3602 54.8998 1.34392 54.883 1.32245 54.8672L1.0858 55.1897ZM0.98283 55.1034C1.01848 55.1406 1.05719 55.1702 1.09104 55.1934L1.3172 54.8635C1.29583 54.8488 1.28129 54.8368 1.27158 54.8266L0.98283 55.1034ZM0.908457 55.0007C0.922234 55.023 0.944615 55.0601 0.976718 55.0968L1.27769 54.8333C1.27081 54.8254 1.26469 54.8163 1.24893 54.7907L0.908457 55.0007ZM0.905724 54.9963L0.90849 55.0007L1.2489 54.7907L1.24613 54.7862L0.905724 54.9963ZM0.846927 54.8792C0.864127 54.9257 0.885384 54.9641 0.906918 54.9982L1.24494 54.7843C1.23295 54.7653 1.22659 54.7526 1.2221 54.7405L0.846927 54.8792ZM0.821785 54.7802C0.826105 54.8018 0.83279 54.8363 0.844341 54.8718L1.22469 54.7479C1.22161 54.7385 1.21909 54.7271 1.214 54.7016L0.821785 54.7802ZM0.817268 54.7581C0.818717 54.7649 0.820103 54.7718 0.821785 54.7802L1.214 54.7016C1.2124 54.6937 1.21049 54.6841 1.20837 54.6742L0.817268 54.7581ZM0.815406 54.7499C0.816838 54.7545 0.816869 54.7547 0.816757 54.7543C0.816508 54.7534 0.815575 54.7497 0.814809 54.7443L1.21083 54.688C1.20699 54.661 1.19951 54.6381 1.19764 54.632L0.815406 54.7499ZM0.8 54.6585C0.8 54.7048 0.813474 54.7436 0.815407 54.7499L1.19764 54.632C1.19671 54.629 1.19646 54.6281 1.1963 54.6276C1.1962 54.6273 1.19657 54.6285 1.19706 54.6307C1.19808 54.6352 1.2 54.6451 1.2 54.6585H0.8ZM0.811475 36.8479C0.810955 36.8496 0.8 36.882 0.8 36.9214H1.2C1.2 36.9365 1.19796 36.9484 1.19642 36.9554C1.19513 36.9614 1.19365 36.966 1.19477 36.9622L0.811475 36.8479ZM0.806994 36.8723C0.808033 36.8623 0.809744 36.8547 0.810701 36.8509C0.811516 36.8476 0.812296 36.8451 0.811473 36.8479L1.19477 36.9622C1.19507 36.9613 1.20216 36.9395 1.20484 36.9137L0.806994 36.8723ZM0.818617 36.7945C0.815195 36.8117 0.808 36.8461 0.806163 36.8831L1.20567 36.9029C1.20581 36.9002 1.2065 36.8948 1.21096 36.8723L0.818617 36.7945ZM0.845522 36.6982C0.833513 36.7299 0.824032 36.763 0.817739 36.7992L1.21184 36.8676C1.21344 36.8584 1.21579 36.8499 1.21956 36.8399L0.845522 36.6982ZM0.884666 36.6109C0.865607 36.6442 0.852693 36.676 0.842704 36.7061L1.22238 36.832C1.2262 36.8205 1.22906 36.8144 1.23169 36.8098L0.884666 36.6109ZM0.867644 36.6514C0.866895 36.6545 0.867717 36.6509 0.869073 36.6465C0.87058 36.6415 0.874082 36.6309 0.880794 36.618L1.23557 36.8028C1.24406 36.7864 1.24894 36.7721 1.25163 36.7633C1.25417 36.755 1.25597 36.7474 1.25622 36.7464L0.867644 36.6514ZM0.899463 36.5757C0.885747 36.5967 0.878252 36.6161 0.874156 36.6284C0.870347 36.6399 0.867896 36.6504 0.867644 36.6514L1.25622 36.7464C1.25717 36.7425 1.25593 36.748 1.2537 36.7547C1.25119 36.7622 1.24566 36.7771 1.23465 36.794L0.899463 36.5757ZM0.943415 36.5255C0.942518 36.5263 0.935857 36.5322 0.928906 36.5392C0.921435 36.5468 0.91032 36.559 0.899468 36.5757L1.23464 36.794C1.22626 36.8069 1.2181 36.8156 1.21384 36.82C1.21009 36.8238 1.20688 36.8265 1.20944 36.8242L0.943415 36.5255ZM0.918224 36.5558C0.926614 36.5429 0.934771 36.5341 0.939027 36.5298C0.942754 36.526 0.945961 36.5233 0.943371 36.5256L1.20948 36.8242C1.21034 36.8234 1.217 36.8176 1.22393 36.8106C1.23139 36.803 1.2425 36.7908 1.25336 36.7741L0.918224 36.5558ZM0.978025 36.4794C0.954263 36.5053 0.936391 36.53 0.922942 36.5489L1.24864 36.7811C1.26083 36.764 1.26662 36.7565 1.27244 36.7502L0.978025 36.4794ZM0.984009 36.4732L0.98265 36.4746L1.26782 36.7551L1.26918 36.7537L0.984009 36.4732ZM1.04982 36.4119C1.02146 36.4348 0.999419 36.4575 0.984035 36.4731L1.26915 36.7537C1.28618 36.7364 1.29315 36.7296 1.30123 36.723L1.04982 36.4119ZM1.11706 36.3621C1.0898 36.3795 1.06775 36.3967 1.04629 36.4149L1.30476 36.7201C1.31683 36.7099 1.32436 36.7043 1.3326 36.6991L1.11706 36.3621ZM1.09041 36.3829C1.08838 36.385 1.08987 36.3834 1.092 36.3814C1.09443 36.3791 1.09998 36.374 1.10806 36.3682L1.3416 36.693C1.36213 36.6782 1.37754 36.6614 1.37811 36.6608L1.09041 36.3829ZM1.15343 36.3342C1.13251 36.3454 1.11717 36.3578 1.10765 36.3662C1.0988 36.3741 1.09148 36.3818 1.09038 36.383L1.37814 36.6608C1.3811 36.6577 1.37787 36.6612 1.37336 36.6652C1.36818 36.6698 1.35743 36.6788 1.34159 36.6872L1.15343 36.3342ZM16.9094 27.6111L1.15064 36.3357L1.34438 36.6857L17.1032 27.9611L16.9094 27.6111ZM16.8063 10.3274V27.7861H17.2063V10.3274H16.8063ZM16.8189 10.2514C16.8187 10.2521 16.8063 10.286 16.8063 10.3274H17.2063C17.2063 10.3442 17.2038 10.3575 17.202 10.3653C17.2004 10.372 17.1986 10.3772 17.1998 10.3736L16.8189 10.2514ZM16.8122 10.299C16.8122 10.281 16.8149 10.2671 16.8167 10.2595C16.8183 10.253 16.82 10.2479 16.8189 10.2514L17.1998 10.3736C17.2001 10.3727 17.2033 10.3631 17.2059 10.3521C17.2087 10.3401 17.2122 10.3216 17.2122 10.299H16.8122ZM16.827 10.1903C16.8189 10.2226 16.814 10.2555 16.8124 10.2895L17.212 10.3085C17.2123 10.3009 17.2134 10.294 17.2152 10.2866L16.827 10.1903ZM16.8518 10.1042C16.8384 10.1395 16.8309 10.1727 16.826 10.1943L17.2161 10.2826C17.2211 10.2607 17.2234 10.2522 17.2258 10.2459L16.8518 10.1042ZM16.8909 10.0169C16.8719 10.0502 16.859 10.082 16.849 10.1121L17.2287 10.238C17.2325 10.2265 17.2353 10.2204 17.238 10.2158L16.8909 10.0169ZM16.8743 10.0561C16.8736 10.0592 16.8744 10.0556 16.8758 10.0511C16.8774 10.046 16.8808 10.036 16.8871 10.024L17.2418 10.2088C17.2499 10.1933 17.2547 10.1796 17.2575 10.1706C17.2601 10.1624 17.262 10.1548 17.2622 10.1538L16.8743 10.0561ZM16.9002 9.99063C16.8815 10.0231 16.8747 10.0548 16.8743 10.0561L17.2622 10.1538C17.2631 10.1504 17.262 10.155 17.2601 10.1607C17.2579 10.1673 17.2538 10.1783 17.2464 10.191L16.9002 9.99063ZM16.9496 9.93159C16.9488 9.93236 16.9421 9.9382 16.9352 9.94523C16.9277 9.9528 16.9166 9.965 16.9058 9.98166L17.2409 10.2C17.2325 10.2129 17.2244 10.2216 17.2201 10.226C17.2164 10.2297 17.2132 10.2325 17.2158 10.2302L16.9496 9.93159ZM16.9245 9.96183C16.9329 9.94892 16.941 9.94013 16.9453 9.9358C16.949 9.93202 16.9523 9.92925 16.9496 9.93157L17.2158 10.2302C17.2166 10.2295 17.2233 10.2236 17.2302 10.2166C17.2377 10.209 17.2488 10.1968 17.2597 10.1801L16.9245 9.96183ZM16.9897 9.88076C16.9621 9.90887 16.9426 9.93603 16.9292 9.95485L17.2549 10.1871C17.2671 10.1699 17.2713 10.1649 17.2753 10.1608L16.9897 9.88076ZM17.0571 9.81698C17.0295 9.83924 17.0055 9.86228 16.9822 9.88889L17.2828 10.1527C17.291 10.1434 17.2986 10.1361 17.3085 10.1281L17.0571 9.81698ZM17.1299 9.76501C17.0986 9.7834 17.0742 9.80261 17.0542 9.81937L17.3114 10.1257C17.323 10.116 17.3281 10.1125 17.3323 10.1101L17.1299 9.76501ZM17.0929 9.79353C17.091 9.79568 17.0929 9.79348 17.0956 9.79083C17.0988 9.78776 17.1051 9.78179 17.1143 9.7752L17.3479 10.0999C17.3704 10.0837 17.3865 10.0652 17.3868 10.0649L17.0929 9.79353ZM17.1673 9.73734C17.1219 9.75912 17.0937 9.79273 17.0929 9.79354L17.3868 10.0649C17.3898 10.0616 17.3853 10.0668 17.3789 10.0724C17.3714 10.0791 17.3585 10.0893 17.3403 10.098L17.1673 9.73734ZM33.1563 0.880875L17.1569 9.7427L17.3507 10.0926L33.3501 1.23079L33.1563 0.880875ZM33.2377 0.850299C33.2304 0.852069 33.1915 0.860143 33.152 0.883304L33.3543 1.22836C33.3439 1.23445 33.3352 1.2377 33.3305 1.2392C33.3283 1.23991 33.327 1.24025 33.3272 1.2402C33.3276 1.2401 33.3283 1.23992 33.3312 1.23921L33.2377 0.850299ZM33.2289 0.853884C33.235 0.8513 33.2395 0.849953 33.241 0.849522C33.242 0.849247 33.2423 0.849205 33.2377 0.850297L33.3312 1.23921C33.3366 1.23794 33.3605 1.23264 33.3859 1.22182L33.2289 0.853884ZM33.3713 0.809071C33.3142 0.819717 33.2658 0.83926 33.2339 0.851843L33.3809 1.22386C33.4161 1.20995 33.4307 1.20489 33.4447 1.20228L33.3713 0.809071ZM33.4997 0.8C33.472 0.8 33.4231 0.799453 33.3715 0.809041L33.4445 1.20231C33.454 1.20055 33.4662 1.2 33.4997 1.2V0.8ZM33.6289 0.80904C33.5772 0.799444 33.5282 0.8 33.4997 0.8V1.2C33.5343 1.2 33.5464 1.20056 33.5559 1.20232L33.6289 0.80904ZM33.7674 0.852496C33.7311 0.837262 33.6853 0.819561 33.6291 0.809071L33.5557 1.20228C33.5705 1.20504 33.5858 1.21005 33.6126 1.22131L33.7674 0.852496ZM33.7629 0.850392C33.7579 0.849191 33.7578 0.849153 33.7585 0.849343C33.7598 0.849703 33.7638 0.85092 33.7693 0.85329L33.6107 1.22052C33.6377 1.23218 33.6629 1.23777 33.6696 1.23936L33.7629 0.850392ZM33.8453 0.880996C33.8075 0.85998 33.7705 0.852235 33.7629 0.850395L33.6695 1.23935C33.6726 1.24007 33.6735 1.24031 33.6742 1.24048C33.6746 1.2406 33.6737 1.24037 33.6719 1.23981C33.6682 1.23864 33.6605 1.2359 33.6511 1.23066L33.8453 0.880996ZM49.8494 9.74269L33.8451 0.880862L33.6513 1.2308L49.6556 10.0926L49.8494 9.74269ZM49.9066 9.78758C49.9058 9.78674 49.8997 9.78033 49.8923 9.77368C49.8844 9.76648 49.872 9.75611 49.8553 9.74613L49.6496 10.0892C49.6369 10.0816 49.6281 10.074 49.6236 10.0699C49.6196 10.0663 49.6167 10.0632 49.6191 10.0657L49.9066 9.78758ZM49.8761 9.76411C49.8887 9.77172 49.8976 9.77924 49.9021 9.78336C49.9061 9.78693 49.9089 9.79002 49.9066 9.78758L49.6191 10.0657C49.6191 10.0657 49.6401 10.089 49.6704 10.1072L49.8761 9.76411ZM49.9547 9.82179C49.9351 9.80523 49.909 9.78407 49.8769 9.7646L49.6695 10.1067C49.6749 10.1099 49.6823 10.1152 49.6962 10.1271L49.9547 9.82179ZM50.0248 9.88967C50.002 9.86343 49.9775 9.83991 49.9504 9.81825L49.7005 10.1306C49.7089 10.1373 49.716 10.1441 49.7228 10.1519L50.0248 9.88967ZM50.0771 9.95484C50.0636 9.93603 50.0441 9.90886 50.0166 9.88075L49.731 10.1609C49.735 10.1649 49.7391 10.1699 49.7514 10.1871L50.0771 9.95484ZM50.0566 9.93155C50.0541 9.92927 50.0573 9.93204 50.061 9.93584C50.0653 9.94018 50.0735 9.94897 50.0818 9.96186L49.7466 10.18C49.7574 10.1967 49.7686 10.2089 49.776 10.2165C49.783 10.2236 49.7897 10.2294 49.7906 10.2302L50.0566 9.93155ZM50.1006 9.98174C50.0897 9.96503 50.0786 9.9528 50.0711 9.94522C50.0642 9.93818 50.0575 9.93233 50.0566 9.93157L49.7905 10.2302C49.7931 10.2325 49.7899 10.2298 49.7862 10.226C49.7819 10.2216 49.7737 10.2128 49.7653 10.1999L50.1006 9.98174ZM50.1322 10.0565C50.132 10.0555 50.1295 10.0449 50.1255 10.0333C50.1212 10.0205 50.1137 10.0019 50.1005 9.98169L49.7654 10.2C49.755 10.1841 49.7495 10.17 49.7468 10.1619C49.7444 10.1551 49.7431 10.1494 49.7441 10.1533L50.1322 10.0565ZM50.1233 10.0323C50.1275 10.0414 50.13 10.0489 50.1312 10.053C50.1323 10.0565 50.1329 10.0592 50.1323 10.0566L49.7441 10.1532C49.7444 10.1544 49.7494 10.1767 49.7604 10.2005L50.1233 10.0323ZM50.1534 10.1013C50.1461 10.083 50.1346 10.0535 50.1192 10.024L49.7645 10.2088C49.7688 10.2171 49.773 10.2273 49.7816 10.2488L50.1534 10.1013ZM50.1803 10.1952C50.1753 10.1731 50.168 10.1415 50.1555 10.1069L49.7794 10.2432C49.7827 10.2521 49.7853 10.2621 49.7902 10.2836L50.1803 10.1952ZM50.1931 10.2792C50.1913 10.2615 50.1883 10.2274 50.1793 10.1912L49.7911 10.2876C49.792 10.2912 49.7929 10.2968 49.7951 10.3188L50.1931 10.2792ZM50.1874 10.2515C50.1863 10.248 50.188 10.2531 50.1896 10.2596C50.1914 10.2672 50.1941 10.2811 50.1941 10.299H49.7941C49.7941 10.3215 49.7975 10.34 49.8004 10.352C49.803 10.363 49.8062 10.3726 49.8065 10.3735L50.1874 10.2515ZM50.2 10.3274C50.2 10.286 50.1876 10.2521 50.1874 10.2515L49.8065 10.3736C49.8076 10.3772 49.8059 10.372 49.8043 10.3653C49.8025 10.3575 49.8 10.3442 49.8 10.3274H50.2ZM50.1872 45.8692C50.1864 45.8776 50.1849 45.8833 50.1847 45.8844C50.1845 45.8849 50.1845 45.8848 50.1849 45.8834C50.1861 45.8793 50.1851 45.8828 50.1869 45.8767C50.1901 45.8658 50.2 45.8327 50.2 45.7917H49.8C49.8 45.781 49.8013 45.7727 49.8022 45.768C49.803 45.7639 49.8038 45.7617 49.8027 45.7652C49.8025 45.766 49.8023 45.7668 49.8019 45.7681C49.8016 45.7693 49.8011 45.7708 49.8006 45.7725C49.7997 45.7757 49.7984 45.7803 49.797 45.7856C49.7944 45.7961 49.791 45.8114 49.7891 45.8297L50.1872 45.8692ZM50.1557 46.0116C50.1741 45.9602 50.1813 45.9103 50.186 45.8789L49.7903 45.82C49.7852 45.8548 49.7825 45.8674 49.7792 45.8766L50.1557 46.0116ZM50.0951 46.1324C50.1166 46.0984 50.1378 46.06 50.1551 46.0134L49.7799 45.8747C49.7754 45.8869 49.769 45.8996 49.757 45.9185L50.0951 46.1324ZM50.0243 46.231C50.0567 46.1939 50.0798 46.1571 50.0962 46.1305L49.7559 45.9204C49.7407 45.945 49.7322 45.9573 49.7233 45.9675L50.0243 46.231ZM49.9147 46.325C49.9417 46.3056 49.984 46.275 50.0212 46.2345L49.7264 45.9641C49.7202 45.9708 49.7093 45.98 49.681 46.0004L49.9147 46.325ZM49.9208 46.3207C49.9241 46.3174 49.9243 46.3173 49.9239 46.3176C49.9231 46.3183 49.9204 46.3208 49.9162 46.3239L49.6795 46.0015C49.6581 46.0172 49.6418 46.034 49.6374 46.0385L49.9208 46.3207ZM49.8496 46.3763C49.8886 46.3547 49.9149 46.3267 49.9208 46.3207L49.6373 46.0385C49.6351 46.0408 49.6345 46.0414 49.634 46.0418C49.6338 46.042 49.6346 46.0413 49.6361 46.0399C49.6394 46.0371 49.6459 46.0319 49.6554 46.0266L49.8496 46.3763ZM32.9122 37.5682L32.9112 37.5687L33.1041 37.9192L33.105 37.9186L32.9122 37.5682ZM32.8077 37.7439V54.3816H33.2077V37.7439H32.8077ZM18.0923 62.8784L33.1046 54.5565L32.9107 54.2066L17.8984 62.5286L18.0923 62.8784ZM17.7953 46.0652V62.7035H18.1953V46.0652H17.7953ZM32.9116 37.566L17.8983 45.8903L18.0923 46.2401L33.1056 37.9158L32.9116 37.566ZM33.2086 37.7434V37.7409H32.8086V37.7434H33.2086ZM33.7937 37.1939V37.1985H34.1937V37.1939H33.7937ZM48.9151 28.7041L33.8968 37.019L34.0906 37.3689L49.1088 29.054L48.9151 28.7041ZM49.2119 45.5183V28.879H48.8119V45.5183H49.2119ZM34.0916 54.0076L49.1088 45.6932L48.9151 45.3433L33.8979 53.6576L34.0916 54.0076ZM34.1947 53.8326V37.1979H33.7947V53.8326H34.1947ZM33.8983 37.0227L33.8973 37.0233L34.0902 37.3737L34.0912 37.3731L33.8983 37.0227ZM48.6158 10.1524L33.5976 1.8366L33.4038 2.18653L48.422 10.5024L48.6158 10.1524ZM33.5976 18.8248L48.6158 10.5023L48.4219 10.1525L33.4037 18.4749L33.5976 18.8248ZM18.3904 10.5023L33.4037 18.8248L33.5976 18.4749L18.5844 10.1525L18.3904 10.5023ZM33.4038 1.83661L18.3905 10.1524L18.5843 10.5023L33.5976 2.18652L33.4038 1.83661ZM34.0916 36.276L49.1098 27.9611L48.916 27.6111L33.8978 35.926L34.0916 36.276ZM33.7947 19.4703V36.101H34.1947V19.4703H33.7947ZM48.916 10.9729L33.8978 19.2953L34.0916 19.6452L49.1099 11.3227L48.916 10.9729ZM49.2129 27.7861V11.1478H48.8129V27.7861H49.2129ZM32.6125 36.7464L17.5992 28.4316L17.4054 28.7815L32.4187 37.0964L32.6125 36.7464ZM17.5993 45.4207L32.6126 37.0963L32.4186 36.7465L17.4053 45.0708L17.5993 45.4207ZM2.38515 37.0963L17.4053 45.4207L17.5992 45.0708L2.57905 36.7465L2.38515 37.0963ZM17.4054 28.4315L2.38524 36.7464L2.57896 37.0964L17.5991 28.7815L17.4054 28.4315ZM33.8617 55.2291L49.8494 46.3764L49.6556 46.0265L33.668 54.8792L33.8617 55.2291ZM0.8 36.9214V54.6585H1.2V36.9214H0.8ZM50.2 45.7917V10.3274H49.8V45.7917H50.2Z" fill="#583BAC" mask="url(#path-1-outside-1_2814_1705)"/>
</svg>
