<svg width="222" height="58" viewBox="0 0 222 58" fill="none" xmlns="http://www.w3.org/2000/svg">
<path d="M75.6719 27.5385H77.5645V23.9017H79.784C84.0166 23.9017 84.2403 21.8308 84.2403 20.366C84.2403 18.8675 83.8618 16.7628 79.6464 16.7628H75.6719V27.5385ZM77.5645 22.4201V18.2782H79.7152C82.038 18.2782 82.296 19.4568 82.296 20.366C82.296 21.2751 82.0552 22.4201 79.7668 22.4201H77.5645Z" fill="#F8F6F1"/>
<path d="M90.1575 27.6564C92.9276 27.6564 93.96 26.3599 94.1148 24.8951H92.1878C92.0157 25.5854 91.5512 26.2757 90.0887 26.2757C88.5058 26.2757 87.7487 25.417 87.6455 23.9354H94.0804C94.3041 21.2246 93.3922 18.8001 90.1403 18.8001C86.6304 18.8001 85.7357 20.9047 85.7357 23.2114C85.7357 25.5181 86.6132 27.6564 90.1575 27.6564ZM87.6627 22.5042C87.7488 21.2415 88.2477 20.1976 89.9683 20.1976C91.6372 20.1976 92.205 21.292 92.1878 22.4706C92.205 22.4706 92.1878 22.4874 92.1878 22.4874C92.205 22.5042 92.1878 22.5042 92.1878 22.5042H87.6627Z" fill="#F8F6F1"/>
<path d="M96.1053 27.5385H97.9463V22.7568C97.9463 21.3593 98.3076 20.366 100.149 20.366C100.303 20.366 100.476 20.3996 100.648 20.3996V18.8001H100.355C98.6345 18.8001 97.7915 19.5409 97.5162 20.1134L97.086 18.918H96.1053V27.5385Z" fill="#F8F6F1"/>
<path d="M105.565 27.6564C107.888 27.6564 109.436 26.6125 109.436 25.0466C109.436 23.2114 107.785 22.8747 105.754 22.4874C104.292 22.2012 103.311 22.0328 103.311 21.2751C103.311 20.5848 103.844 20.1976 105.29 20.1976C106.752 20.1976 107.423 20.7027 107.492 21.8813H109.213C109.213 19.8608 107.888 18.8001 105.341 18.8001C102.761 18.8001 101.487 19.743 101.487 21.4267C101.487 23.043 103.208 23.4808 105.1 23.8344C106.615 24.1206 107.63 24.3395 107.63 25.1308C107.63 25.8043 106.787 26.2252 105.531 26.2252C103.931 26.2252 103.122 25.6359 103.122 24.4742H101.315C101.315 26.6125 102.709 27.6564 105.565 27.6564Z" fill="#F8F6F1"/>
<path d="M115.328 27.6564C118.769 27.6564 119.715 25.5349 119.715 23.2282C119.715 20.9552 118.769 18.8001 115.345 18.8001C111.887 18.8001 110.975 20.9552 110.975 23.2282C110.975 25.5181 111.869 27.6564 115.328 27.6564ZM115.328 26.1915C113.298 26.1915 112.85 24.8614 112.85 23.2282C112.85 21.6119 113.298 20.2649 115.345 20.2649C117.427 20.2649 117.84 21.6287 117.84 23.2282C117.84 24.8951 117.392 26.1915 115.328 26.1915Z" fill="#F8F6F1"/>
<path d="M121.681 27.5385H123.522V22.74C123.522 21.191 123.918 20.2986 125.793 20.2986C127.669 20.2986 127.944 21.2078 127.944 22.74V27.5385H129.768V22.8915C129.768 20.4501 129.2 18.8001 126.31 18.8001C124.314 18.8001 123.385 19.5409 123.092 20.1302L122.679 18.918H121.681V27.5385Z" fill="#F8F6F1"/>
<path d="M134.988 27.6564C136.812 27.6564 138.034 26.9155 138.446 26.2421L138.825 27.5385H139.823V22.6389C139.823 20.3154 139.307 18.8001 135.711 18.8001C132.614 18.8001 131.857 20.1807 131.857 21.9655L133.646 21.9486C133.646 20.8711 134.093 20.2313 135.728 20.2313C137.5 20.2313 137.965 20.9552 138.016 22.2012L135.246 22.4706C132.734 22.7063 131.581 23.4303 131.581 25.013C131.581 26.8313 133.096 27.6564 134.988 27.6564ZM135.453 26.2421C134.162 26.2421 133.474 25.7875 133.474 24.9961C133.474 24.3226 133.99 24.0027 135.522 23.8344L138.016 23.565V23.8344C138.016 25.3329 137.07 26.2421 135.453 26.2421Z" fill="#F8F6F1"/>
<path d="M141.902 27.5385H143.743V15.6348H141.902V27.5385Z" fill="#F8F6F1"/>
<path d="M75.6719 47.952H77.5645V37.1764H75.6719V47.952Z" fill="#F8F6F1"/>
<path d="M80.0805 47.952H81.9216V43.1535C81.9216 41.6045 82.3173 40.7121 84.1927 40.7121C86.0681 40.7121 86.3434 41.6213 86.3434 43.1535V47.952H88.1672V43.305C88.1672 40.8637 87.5994 39.2136 84.7089 39.2136C82.713 39.2136 81.7839 39.9545 81.4914 40.5437L81.0785 39.3315H80.0805V47.952Z" fill="#F8F6F1"/>
<path d="M92.6205 47.952H94.7196L98.4532 39.3315H96.3713L93.6872 46.4367L91.072 39.3315H89.0589L92.6205 47.952Z" fill="#F8F6F1"/>
<path d="M103.556 48.0699C106.327 48.0699 107.359 46.7734 107.514 45.3086H105.587C105.415 45.9989 104.95 46.6892 103.488 46.6892C101.905 46.6892 101.148 45.8306 101.044 44.3489H107.479C107.703 41.6382 106.791 39.2136 103.539 39.2136C100.029 39.2136 99.1346 41.3183 99.1346 43.6249C99.1346 45.9316 100.012 48.0699 103.556 48.0699ZM101.062 42.9178C101.148 41.655 101.647 40.6111 103.367 40.6111C105.036 40.6111 105.604 41.7055 105.587 42.8841C105.604 42.8841 105.587 42.9009 105.587 42.9009C105.604 42.9178 105.587 42.9178 105.587 42.9178H101.062Z" fill="#F8F6F1"/>
<path d="M113.289 48.0699C115.612 48.0699 117.161 47.026 117.161 45.4601C117.161 43.6249 115.509 43.2882 113.479 42.9009C112.016 42.6147 111.035 42.4463 111.035 41.6887C111.035 40.9983 111.569 40.6111 113.014 40.6111C114.477 40.6111 115.148 41.1162 115.216 42.2948H116.937C116.937 40.2744 115.612 39.2136 113.066 39.2136C110.485 39.2136 109.212 40.1565 109.212 41.8402C109.212 43.4565 110.932 43.8943 112.825 44.2479C114.339 44.5341 115.354 44.753 115.354 45.5443C115.354 46.2178 114.511 46.6387 113.255 46.6387C111.655 46.6387 110.846 46.0494 110.846 44.8877H109.04C109.04 47.026 110.433 48.0699 113.289 48.0699Z" fill="#F8F6F1"/>
<path d="M123.201 48.0194V46.5714C121.291 46.6556 120.947 46.2852 120.947 45.477V40.7795H123.201V39.3315H120.895V37.1764H119.071V39.3315L117.815 39.7019V40.7795H119.071V45.477C119.071 47.5143 120.293 48.1877 123.201 48.0194Z" fill="#F8F6F1"/>
<path d="M124.903 47.952H126.744V42.7831C126.744 41.554 127.053 40.729 128.43 40.729C129.841 40.729 130.064 41.5708 130.064 42.7831V47.952H131.922V42.7831C131.922 41.554 132.215 40.729 133.591 40.729C135.002 40.729 135.226 41.5708 135.226 42.7831V47.952H137.084V42.8841C137.084 40.8637 136.585 39.2136 134.176 39.2136C132.507 39.2136 131.699 39.9376 131.441 40.5437C131.062 39.7019 130.322 39.2136 129.015 39.2136C127.38 39.2136 126.589 39.8871 126.313 40.4427L125.9 39.3315H124.903V47.952Z" fill="#F8F6F1"/>
<path d="M143.359 48.0699C146.129 48.0699 147.162 46.7734 147.317 45.3086H145.39C145.217 45.9989 144.753 46.6892 143.29 46.6892C141.707 46.6892 140.95 45.8306 140.847 44.3489H147.282C147.506 41.6382 146.594 39.2136 143.342 39.2136C139.832 39.2136 138.937 41.3183 138.937 43.6249C138.937 45.9316 139.815 48.0699 143.359 48.0699ZM140.864 42.9178C140.95 41.655 141.449 40.6111 143.17 40.6111C144.839 40.6111 145.407 41.7055 145.39 42.8841C145.407 42.8841 145.39 42.9009 145.39 42.9009C145.407 42.9178 145.39 42.9178 145.39 42.9178H140.864Z" fill="#F8F6F1"/>
<path d="M149.307 47.952H151.148V43.1535C151.148 41.6045 151.544 40.7121 153.419 40.7121C155.295 40.7121 155.57 41.6213 155.57 43.1535V47.952H157.394V43.305C157.394 40.8637 156.826 39.2136 153.935 39.2136C151.939 39.2136 151.01 39.9545 150.718 40.5437L150.305 39.3315H149.307V47.952Z" fill="#F8F6F1"/>
<path d="M163.726 48.0194V46.5714C161.816 46.6556 161.472 46.2852 161.472 45.477V40.7795H163.726V39.3315H161.42V37.1764H159.597V39.3315L158.341 39.7019V40.7795H159.597V45.477C159.597 47.5143 160.818 48.1877 163.726 48.0194Z" fill="#F8F6F1"/>
<path d="M168.81 48.0699C171.133 48.0699 172.681 47.026 172.681 45.4601C172.681 43.6249 171.029 43.2882 168.999 42.9009C167.537 42.6147 166.556 42.4463 166.556 41.6887C166.556 40.9983 167.089 40.6111 168.535 40.6111C169.997 40.6111 170.668 41.1162 170.737 42.2948H172.457C172.457 40.2744 171.133 39.2136 168.586 39.2136C166.005 39.2136 164.732 40.1565 164.732 41.8402C164.732 43.4565 166.453 43.8943 168.345 44.2479C169.859 44.5341 170.875 44.753 170.875 45.5443C170.875 46.2178 170.031 46.6387 168.775 46.6387C167.175 46.6387 166.367 46.0494 166.367 44.8877H164.56C164.56 47.026 165.954 48.0699 168.81 48.0699Z" fill="#F8F6F1"/>
<path d="M181.405 47.952H183.246V38.6917H186.412V37.1764H178.239V38.6917H181.405V47.952Z" fill="#F8F6F1"/>
<path d="M186.786 47.952H188.627V43.1703C188.627 41.7728 188.989 40.7795 190.83 40.7795C190.985 40.7795 191.157 40.8131 191.329 40.8131V39.2136H191.036C189.316 39.2136 188.473 39.9545 188.197 40.5269L187.767 39.3315H186.786V47.952Z" fill="#F8F6F1"/>
<path d="M195.506 48.0699C197.33 48.0699 198.552 47.329 198.965 46.6556L199.343 47.952H200.341V43.0525C200.341 40.729 199.825 39.2136 196.229 39.2136C193.132 39.2136 192.375 40.5943 192.375 42.379L194.164 42.3621C194.164 41.2846 194.612 40.6448 196.246 40.6448C198.018 40.6448 198.483 41.3688 198.534 42.6147L195.764 42.8841C193.252 43.1198 192.1 43.8438 192.1 45.4265C192.1 47.2449 193.614 48.0699 195.506 48.0699ZM195.971 46.6556C194.68 46.6556 193.992 46.201 193.992 45.4096C193.992 44.7362 194.508 44.4163 196.04 44.2479L198.534 43.9785V44.2479C198.534 45.7464 197.588 46.6556 195.971 46.6556Z" fill="#F8F6F1"/>
<path d="M205.844 48.0699C207.926 48.0699 208.906 47.3122 209.216 46.7229L209.629 47.952H210.627V36.0483H208.82V40.3922C208.442 39.8198 207.564 39.2136 205.827 39.2136C202.902 39.2136 202.076 41.2846 202.076 43.6418C202.076 45.9989 202.936 48.0699 205.844 48.0699ZM206.36 46.5882C204.364 46.5882 203.951 45.376 203.951 43.6418C203.951 41.9075 204.364 40.729 206.377 40.729C208.476 40.729 208.838 41.9749 208.838 43.6418C208.838 45.4096 208.408 46.5882 206.36 46.5882Z" fill="#F8F6F1"/>
<path d="M217.046 48.0699C219.816 48.0699 220.848 46.7734 221.003 45.3086H219.076C218.904 45.9989 218.439 46.6892 216.977 46.6892C215.394 46.6892 214.637 45.8306 214.534 44.3489H220.969C221.192 41.6382 220.28 39.2136 217.029 39.2136C213.519 39.2136 212.624 41.3183 212.624 43.6249C212.624 45.9316 213.501 48.0699 217.046 48.0699ZM214.551 42.9178C214.637 41.655 215.136 40.6111 216.856 40.6111C218.525 40.6111 219.093 41.7055 219.076 42.8841C219.093 42.8841 219.076 42.9009 219.076 42.9009C219.093 42.9178 219.076 42.9178 219.076 42.9178H214.551Z" fill="#F8F6F1"/>
<path d="M2.1875 28.9948C2.1875 12.9814 15.1689 0 31.1823 0C47.1956 0 60.177 12.984 60.177 28.9974C60.177 45.0136 47.1933 58 31.177 58H2.1875V28.9948Z" fill="#583BAC"/>
<path d="M15.4844 20.1762L15.4844 51.1484L46.4511 20.1762L15.4844 20.1762Z" fill="#F8F6F1"/>
<ellipse cx="31.1175" cy="35.8996" rx="4.5706" ry="4.57143" fill="#222B40"/>
</svg>
