<svg width="239" height="239" viewBox="0 0 239 239" fill="none" xmlns="http://www.w3.org/2000/svg">
<g clip-path="url(#clip0_2904_1247)">
<g clip-path="url(#clip1_2904_1247)">
<path d="M9.99388 73.493C35.478 13.0386 105.145 -15.3103 165.6 10.174C226.055 35.6583 254.404 105.325 228.92 165.78C203.436 226.234 133.769 254.583 73.3141 229.099C12.8592 203.615 -15.4902 133.947 9.99388 73.493ZM174.876 142.998C187.778 112.391 173.425 77.12 142.818 64.2179C112.211 51.3157 76.9403 65.6682 64.0382 96.275C51.1362 126.882 65.4889 162.153 96.0959 175.055C126.703 187.957 161.974 173.605 174.876 142.998Z" fill="#F8F6F1"/>
<path d="M73.3141 229.099C98.639 239.774 126.882 241.339 153.231 233.525C179.58 225.711 202.404 209.004 217.815 186.248C233.226 163.493 240.27 136.098 237.747 108.731C235.224 81.3642 223.289 55.7188 203.978 36.1646C184.666 16.6104 159.171 4.35713 131.838 1.49267C104.504 -1.37179 77.0235 5.32978 54.0775 20.4555C31.1314 35.5812 14.1399 58.1952 5.99818 84.4444C-2.14358 110.694 -0.931863 138.954 9.42687 164.41L63.6938 142.328C58.444 129.426 57.8299 115.104 61.9561 101.801C66.0824 88.498 74.6937 77.0372 86.3227 69.3715C97.9518 61.7058 111.879 58.3094 125.732 59.7612C139.584 61.2129 152.505 67.4228 162.292 77.3329C172.079 87.243 178.128 100.24 179.406 114.11C180.685 127.979 177.115 141.863 169.305 153.395C161.495 164.928 149.927 173.395 136.574 177.355C123.22 181.315 108.906 180.522 96.0718 175.112L73.3141 229.099Z" fill="#F8B940"/>
<path d="M73.3141 229.099C94.9639 238.225 118.834 240.727 141.905 236.287C164.977 231.847 186.213 220.666 202.93 204.157C219.646 187.648 231.092 166.552 235.819 143.538C240.546 120.524 238.343 96.6249 229.487 74.8631C220.632 53.1012 205.522 34.454 186.069 21.2794C166.615 8.10481 143.692 0.994642 120.198 0.847994C96.7037 0.701346 73.6936 7.52481 54.0775 20.4555C34.4613 33.3862 19.1201 51.8434 9.99388 73.493L63.9821 96.2513C68.6072 85.2795 76.382 75.9256 86.3233 69.3724C96.2646 62.8192 107.926 59.3612 119.833 59.4355C131.739 59.5098 143.357 63.1132 153.215 69.7899C163.074 76.4667 170.732 85.9169 175.219 96.9457C179.707 107.974 180.824 120.086 178.428 131.75C176.033 143.413 170.232 154.104 161.76 162.471C153.289 170.837 142.526 176.504 130.834 178.754C119.141 181.004 107.044 179.736 96.0722 175.111L73.3141 229.099Z" fill="#583BAC"/>
</g>
</g>
<defs>
<clipPath id="clip0_2904_1247">
<rect width="239" height="239" fill="white"/>
</clipPath>
<clipPath id="clip1_2904_1247">
<rect width="340" height="291.488" fill="white" transform="translate(162.301 324.668) rotate(-157.143)"/>
</clipPath>
</defs>
</svg>
