<svg width="119" height="30" viewBox="0 0 119 30" fill="none" xmlns="http://www.w3.org/2000/svg">
<g clip-path="url(#clip0_3001_1173)">
<g clip-path="url(#clip1_3001_1173)">
<path fill-rule="evenodd" clip-rule="evenodd" d="M0.440627 2.20312C0.163089 2.4788 0 2.90575 0 3.4598V23.2392C0 23.7932 0.163089 24.2202 0.440627 24.4959L0.511204 24.5603L12.3175 13.4802V13.2188L0.511204 2.13867L0.440627 2.20312Z" fill="#00D7FE"/>
<mask id="mask0_3001_1173" style="mask-type:alpha" maskUnits="userSpaceOnUse" x="12" y="9" width="10" height="9">
<path d="M16.2467 17.1815L12.3125 13.4866V13.2252L16.2486 9.53125L21.0001 12.0643C22.3315 12.775 22.3315 13.9368 21.0001 14.6466L16.3373 17.1331L16.2467 17.1815Z" fill="white"/>
</mask>
<g mask="url(#mask0_3001_1173)">
<path fill-rule="evenodd" clip-rule="evenodd" d="M16.2467 17.1815L12.3125 13.4866V13.2252L16.2486 9.53125L21.0001 12.0643C22.3315 12.775 22.3315 13.9368 21.0001 14.6466L16.3373 17.1331L16.2467 17.1815Z" fill="url(#paint0_linear_3001_1173)"/>
</g>
<mask id="mask1_3001_1173" style="mask-type:alpha" maskUnits="userSpaceOnUse" x="0" y="13" width="17" height="12">
<path d="M16.3392 17.1288L12.3144 13.3516L0.4375 24.4979C0.877174 24.9338 1.60201 24.9875 2.41842 24.5525L16.3392 17.1288Z" fill="white"/>
</mask>
<g mask="url(#mask1_3001_1173)">
<path fill-rule="evenodd" clip-rule="evenodd" d="M16.3392 17.1288L12.3144 13.3516L0.4375 24.4979C0.877174 24.9338 1.60201 24.9875 2.41842 24.5525L16.3392 17.1288Z" fill="url(#paint1_linear_3001_1173)"/>
</g>
<mask id="mask2_3001_1173" style="mask-type:alpha" maskUnits="userSpaceOnUse" x="0" y="1" width="17" height="13">
<path d="M16.3392 9.57587L2.41842 2.15211C1.60201 1.71711 0.877174 1.77081 0.4375 2.20671L12.3144 13.3531L16.3392 9.57587Z" fill="white"/>
</mask>
<g mask="url(#mask2_3001_1173)">
<path fill-rule="evenodd" clip-rule="evenodd" d="M16.3392 9.57587L2.41842 2.15211C1.60201 1.71711 0.877174 1.77081 0.4375 2.20671L12.3144 13.3531L16.3392 9.57587Z" fill="url(#paint2_linear_3001_1173)"/>
</g>
</g>
<g clip-path="url(#clip2_3001_1173)">
<mask id="path-8-outside-1_3001_1173" maskUnits="userSpaceOnUse" x="28" y="10.8516" width="91" height="20" fill="black">
<rect fill="white" x="28" y="10.8516" width="91" height="20"/>
<path fill-rule="evenodd" clip-rule="evenodd" d="M98.1772 25.5431H100.136V12.3293H98.1772V25.5431ZM115.822 17.0891L113.576 22.8181H113.509L111.178 17.0891H109.068L112.563 25.096L110.57 29.5503H112.614L118 17.0891H115.822ZM104.712 24.0422C104.07 24.0422 103.175 23.7198 103.175 22.9207C103.175 21.9007 104.29 21.5096 105.252 21.5096C106.114 21.5096 106.518 21.6967 107.042 21.9514C106.89 23.1754 105.843 24.0422 104.712 24.0422ZM104.949 16.8005C103.53 16.8005 102.062 17.4295 101.454 18.8237L103.192 19.5541C103.564 18.8237 104.256 18.5848 104.982 18.5848C105.995 18.5848 107.025 19.1968 107.042 20.2855V20.4208C106.687 20.2168 105.928 19.9113 104.999 19.9113C103.125 19.9113 101.216 20.9483 101.216 22.8858C101.216 24.6542 102.753 25.7937 104.475 25.7937C105.793 25.7937 106.518 25.1986 106.975 24.5009H107.042V25.5209H108.933V20.4557C108.933 18.1091 107.194 16.8005 104.949 16.8005ZM92.842 18.6979H90.0557V14.1686H92.842C94.3065 14.1686 95.138 15.3894 95.138 16.4327C95.138 17.4569 94.3065 18.6979 92.842 18.6979ZM92.7916 12.3293H88.0978V25.5431H90.0557V20.5371H92.7916C94.9626 20.5371 97.0969 18.9537 97.0969 16.4327C97.0969 13.9117 94.9626 12.3293 92.7916 12.3293ZM67.1958 24.0443C65.8426 24.0443 64.7098 22.9038 64.7098 21.3373C64.7098 19.7538 65.8426 18.5954 67.1958 18.5954C68.5322 18.5954 69.58 19.7538 69.58 21.3373C69.58 22.9038 68.5322 24.0443 67.1958 24.0443ZM69.4445 17.829H69.3773C68.9375 17.3016 68.0923 16.8248 67.0268 16.8248C64.7938 16.8248 62.7477 18.7994 62.7477 21.3373C62.7477 23.8572 64.7938 25.8159 67.0268 25.8159C68.0923 25.8159 68.9375 25.3391 69.3773 24.7937H69.4445V25.4406C69.4445 27.1614 68.5322 28.0811 67.0604 28.0811C65.8594 28.0811 65.115 27.2122 64.8106 26.4797L63.1025 27.1953C63.5928 28.3876 64.8956 29.8516 67.0604 29.8516C69.3605 29.8516 71.3059 28.4891 71.3059 25.169V17.0965H69.4445V17.829ZM72.6591 25.5431H74.6212V12.3283H72.6591V25.5431ZM77.5124 21.184C77.462 19.4473 78.8489 18.5615 79.8462 18.5615C80.6252 18.5615 81.2845 18.9526 81.5039 19.515L77.5124 21.184ZM83.6014 19.6851C83.2298 18.681 82.096 16.8248 79.779 16.8248C77.4788 16.8248 75.5682 18.6461 75.5682 21.3204C75.5682 23.8403 77.462 25.8159 79.9984 25.8159C82.0456 25.8159 83.2298 24.5559 83.7201 23.8234L82.1978 22.8012C81.6907 23.5507 80.9968 24.0443 79.9984 24.0443C79.0011 24.0443 78.2904 23.5845 77.8337 22.6829L83.804 20.1967L83.6014 19.6851ZM36.0359 18.2043V20.1111H40.568C40.4326 21.184 40.0778 21.9672 39.5371 22.5127C38.8768 23.1765 37.8448 23.9079 36.0359 23.9079C33.2455 23.9079 31.0629 21.6438 31.0629 18.8342C31.0629 16.0236 33.2455 13.7595 36.0359 13.7595C37.5414 13.7595 38.6405 14.3556 39.4521 15.122L40.7885 13.7764C39.6547 12.6866 38.1503 11.8516 36.0359 11.8516C32.2135 11.8516 29 14.9856 29 18.8342C29 22.6829 32.2135 25.8159 36.0359 25.8159C38.0988 25.8159 39.6547 25.1351 40.8725 23.8572C42.1239 22.5972 42.5134 20.8267 42.5134 19.3955C42.5134 18.9526 42.4798 18.5446 42.4115 18.2043H36.0359ZM47.6669 24.0443C46.3137 24.0443 45.1463 22.9207 45.1463 21.3204C45.1463 19.7021 46.3137 18.5954 47.6669 18.5954C49.0191 18.5954 50.1865 19.7021 50.1865 21.3204C50.1865 22.9207 49.0191 24.0443 47.6669 24.0443ZM47.6669 16.8248C45.1967 16.8248 43.1842 18.7148 43.1842 21.3204C43.1842 23.9079 45.1967 25.8159 47.6669 25.8159C50.1361 25.8159 52.1486 23.9079 52.1486 21.3204C52.1486 18.7148 50.1361 16.8248 47.6669 16.8248ZM57.444 24.0443C56.0907 24.0443 54.9233 22.9207 54.9233 21.3204C54.9233 19.7021 56.0907 18.5954 57.444 18.5954C58.7972 18.5954 59.9636 19.7021 59.9636 21.3204C59.9636 22.9207 58.7972 24.0443 57.444 24.0443ZM57.444 16.8248C54.9748 16.8248 52.9623 18.7148 52.9623 21.3204C52.9623 23.9079 54.9748 25.8159 57.444 25.8159C59.9132 25.8159 61.9257 23.9079 61.9257 21.3204C61.9257 18.7148 59.9132 16.8248 57.444 16.8248Z"/>
</mask>
<path fill-rule="evenodd" clip-rule="evenodd" d="M98.1772 25.5431H100.136V12.3293H98.1772V25.5431ZM115.822 17.0891L113.576 22.8181H113.509L111.178 17.0891H109.068L112.563 25.096L110.57 29.5503H112.614L118 17.0891H115.822ZM104.712 24.0422C104.07 24.0422 103.175 23.7198 103.175 22.9207C103.175 21.9007 104.29 21.5096 105.252 21.5096C106.114 21.5096 106.518 21.6967 107.042 21.9514C106.89 23.1754 105.843 24.0422 104.712 24.0422ZM104.949 16.8005C103.53 16.8005 102.062 17.4295 101.454 18.8237L103.192 19.5541C103.564 18.8237 104.256 18.5848 104.982 18.5848C105.995 18.5848 107.025 19.1968 107.042 20.2855V20.4208C106.687 20.2168 105.928 19.9113 104.999 19.9113C103.125 19.9113 101.216 20.9483 101.216 22.8858C101.216 24.6542 102.753 25.7937 104.475 25.7937C105.793 25.7937 106.518 25.1986 106.975 24.5009H107.042V25.5209H108.933V20.4557C108.933 18.1091 107.194 16.8005 104.949 16.8005ZM92.842 18.6979H90.0557V14.1686H92.842C94.3065 14.1686 95.138 15.3894 95.138 16.4327C95.138 17.4569 94.3065 18.6979 92.842 18.6979ZM92.7916 12.3293H88.0978V25.5431H90.0557V20.5371H92.7916C94.9626 20.5371 97.0969 18.9537 97.0969 16.4327C97.0969 13.9117 94.9626 12.3293 92.7916 12.3293ZM67.1958 24.0443C65.8426 24.0443 64.7098 22.9038 64.7098 21.3373C64.7098 19.7538 65.8426 18.5954 67.1958 18.5954C68.5322 18.5954 69.58 19.7538 69.58 21.3373C69.58 22.9038 68.5322 24.0443 67.1958 24.0443ZM69.4445 17.829H69.3773C68.9375 17.3016 68.0923 16.8248 67.0268 16.8248C64.7938 16.8248 62.7477 18.7994 62.7477 21.3373C62.7477 23.8572 64.7938 25.8159 67.0268 25.8159C68.0923 25.8159 68.9375 25.3391 69.3773 24.7937H69.4445V25.4406C69.4445 27.1614 68.5322 28.0811 67.0604 28.0811C65.8594 28.0811 65.115 27.2122 64.8106 26.4797L63.1025 27.1953C63.5928 28.3876 64.8956 29.8516 67.0604 29.8516C69.3605 29.8516 71.3059 28.4891 71.3059 25.169V17.0965H69.4445V17.829ZM72.6591 25.5431H74.6212V12.3283H72.6591V25.5431ZM77.5124 21.184C77.462 19.4473 78.8489 18.5615 79.8462 18.5615C80.6252 18.5615 81.2845 18.9526 81.5039 19.515L77.5124 21.184ZM83.6014 19.6851C83.2298 18.681 82.096 16.8248 79.779 16.8248C77.4788 16.8248 75.5682 18.6461 75.5682 21.3204C75.5682 23.8403 77.462 25.8159 79.9984 25.8159C82.0456 25.8159 83.2298 24.5559 83.7201 23.8234L82.1978 22.8012C81.6907 23.5507 80.9968 24.0443 79.9984 24.0443C79.0011 24.0443 78.2904 23.5845 77.8337 22.6829L83.804 20.1967L83.6014 19.6851ZM36.0359 18.2043V20.1111H40.568C40.4326 21.184 40.0778 21.9672 39.5371 22.5127C38.8768 23.1765 37.8448 23.9079 36.0359 23.9079C33.2455 23.9079 31.0629 21.6438 31.0629 18.8342C31.0629 16.0236 33.2455 13.7595 36.0359 13.7595C37.5414 13.7595 38.6405 14.3556 39.4521 15.122L40.7885 13.7764C39.6547 12.6866 38.1503 11.8516 36.0359 11.8516C32.2135 11.8516 29 14.9856 29 18.8342C29 22.6829 32.2135 25.8159 36.0359 25.8159C38.0988 25.8159 39.6547 25.1351 40.8725 23.8572C42.1239 22.5972 42.5134 20.8267 42.5134 19.3955C42.5134 18.9526 42.4798 18.5446 42.4115 18.2043H36.0359ZM47.6669 24.0443C46.3137 24.0443 45.1463 22.9207 45.1463 21.3204C45.1463 19.7021 46.3137 18.5954 47.6669 18.5954C49.0191 18.5954 50.1865 19.7021 50.1865 21.3204C50.1865 22.9207 49.0191 24.0443 47.6669 24.0443ZM47.6669 16.8248C45.1967 16.8248 43.1842 18.7148 43.1842 21.3204C43.1842 23.9079 45.1967 25.8159 47.6669 25.8159C50.1361 25.8159 52.1486 23.9079 52.1486 21.3204C52.1486 18.7148 50.1361 16.8248 47.6669 16.8248ZM57.444 24.0443C56.0907 24.0443 54.9233 22.9207 54.9233 21.3204C54.9233 19.7021 56.0907 18.5954 57.444 18.5954C58.7972 18.5954 59.9636 19.7021 59.9636 21.3204C59.9636 22.9207 58.7972 24.0443 57.444 24.0443ZM57.444 16.8248C54.9748 16.8248 52.9623 18.7148 52.9623 21.3204C52.9623 23.9079 54.9748 25.8159 57.444 25.8159C59.9132 25.8159 61.9257 23.9079 61.9257 21.3204C61.9257 18.7148 59.9132 16.8248 57.444 16.8248Z" fill="white"/>
<path fill-rule="evenodd" clip-rule="evenodd" d="M98.1772 25.5431H100.136V12.3293H98.1772V25.5431ZM115.822 17.0891L113.576 22.8181H113.509L111.178 17.0891H109.068L112.563 25.096L110.57 29.5503H112.614L118 17.0891H115.822ZM104.712 24.0422C104.07 24.0422 103.175 23.7198 103.175 22.9207C103.175 21.9007 104.29 21.5096 105.252 21.5096C106.114 21.5096 106.518 21.6967 107.042 21.9514C106.89 23.1754 105.843 24.0422 104.712 24.0422ZM104.949 16.8005C103.53 16.8005 102.062 17.4295 101.454 18.8237L103.192 19.5541C103.564 18.8237 104.256 18.5848 104.982 18.5848C105.995 18.5848 107.025 19.1968 107.042 20.2855V20.4208C106.687 20.2168 105.928 19.9113 104.999 19.9113C103.125 19.9113 101.216 20.9483 101.216 22.8858C101.216 24.6542 102.753 25.7937 104.475 25.7937C105.793 25.7937 106.518 25.1986 106.975 24.5009H107.042V25.5209H108.933V20.4557C108.933 18.1091 107.194 16.8005 104.949 16.8005ZM92.842 18.6979H90.0557V14.1686H92.842C94.3065 14.1686 95.138 15.3894 95.138 16.4327C95.138 17.4569 94.3065 18.6979 92.842 18.6979ZM92.7916 12.3293H88.0978V25.5431H90.0557V20.5371H92.7916C94.9626 20.5371 97.0969 18.9537 97.0969 16.4327C97.0969 13.9117 94.9626 12.3293 92.7916 12.3293ZM67.1958 24.0443C65.8426 24.0443 64.7098 22.9038 64.7098 21.3373C64.7098 19.7538 65.8426 18.5954 67.1958 18.5954C68.5322 18.5954 69.58 19.7538 69.58 21.3373C69.58 22.9038 68.5322 24.0443 67.1958 24.0443ZM69.4445 17.829H69.3773C68.9375 17.3016 68.0923 16.8248 67.0268 16.8248C64.7938 16.8248 62.7477 18.7994 62.7477 21.3373C62.7477 23.8572 64.7938 25.8159 67.0268 25.8159C68.0923 25.8159 68.9375 25.3391 69.3773 24.7937H69.4445V25.4406C69.4445 27.1614 68.5322 28.0811 67.0604 28.0811C65.8594 28.0811 65.115 27.2122 64.8106 26.4797L63.1025 27.1953C63.5928 28.3876 64.8956 29.8516 67.0604 29.8516C69.3605 29.8516 71.3059 28.4891 71.3059 25.169V17.0965H69.4445V17.829ZM72.6591 25.5431H74.6212V12.3283H72.6591V25.5431ZM77.5124 21.184C77.462 19.4473 78.8489 18.5615 79.8462 18.5615C80.6252 18.5615 81.2845 18.9526 81.5039 19.515L77.5124 21.184ZM83.6014 19.6851C83.2298 18.681 82.096 16.8248 79.779 16.8248C77.4788 16.8248 75.5682 18.6461 75.5682 21.3204C75.5682 23.8403 77.462 25.8159 79.9984 25.8159C82.0456 25.8159 83.2298 24.5559 83.7201 23.8234L82.1978 22.8012C81.6907 23.5507 80.9968 24.0443 79.9984 24.0443C79.0011 24.0443 78.2904 23.5845 77.8337 22.6829L83.804 20.1967L83.6014 19.6851ZM36.0359 18.2043V20.1111H40.568C40.4326 21.184 40.0778 21.9672 39.5371 22.5127C38.8768 23.1765 37.8448 23.9079 36.0359 23.9079C33.2455 23.9079 31.0629 21.6438 31.0629 18.8342C31.0629 16.0236 33.2455 13.7595 36.0359 13.7595C37.5414 13.7595 38.6405 14.3556 39.4521 15.122L40.7885 13.7764C39.6547 12.6866 38.1503 11.8516 36.0359 11.8516C32.2135 11.8516 29 14.9856 29 18.8342C29 22.6829 32.2135 25.8159 36.0359 25.8159C38.0988 25.8159 39.6547 25.1351 40.8725 23.8572C42.1239 22.5972 42.5134 20.8267 42.5134 19.3955C42.5134 18.9526 42.4798 18.5446 42.4115 18.2043H36.0359ZM47.6669 24.0443C46.3137 24.0443 45.1463 22.9207 45.1463 21.3204C45.1463 19.7021 46.3137 18.5954 47.6669 18.5954C49.0191 18.5954 50.1865 19.7021 50.1865 21.3204C50.1865 22.9207 49.0191 24.0443 47.6669 24.0443ZM47.6669 16.8248C45.1967 16.8248 43.1842 18.7148 43.1842 21.3204C43.1842 23.9079 45.1967 25.8159 47.6669 25.8159C50.1361 25.8159 52.1486 23.9079 52.1486 21.3204C52.1486 18.7148 50.1361 16.8248 47.6669 16.8248ZM57.444 24.0443C56.0907 24.0443 54.9233 22.9207 54.9233 21.3204C54.9233 19.7021 56.0907 18.5954 57.444 18.5954C58.7972 18.5954 59.9636 19.7021 59.9636 21.3204C59.9636 22.9207 58.7972 24.0443 57.444 24.0443ZM57.444 16.8248C54.9748 16.8248 52.9623 18.7148 52.9623 21.3204C52.9623 23.9079 54.9748 25.8159 57.444 25.8159C59.9132 25.8159 61.9257 23.9079 61.9257 21.3204C61.9257 18.7148 59.9132 16.8248 57.444 16.8248Z" stroke="white" stroke-width="0.2" mask="url(#path-8-outside-1_3001_1173)"/>
<path d="M32.5034 4.905C33.2984 4.905 33.7559 4.59 34.0409 4.11L34.2434 4.8525H34.7159V2.175H32.4884V2.85H33.8984C33.8984 3.675 33.4634 4.215 32.5484 4.215C31.4384 4.215 31.1759 3.435 31.1759 2.4525C31.1759 1.47 31.4159 0.6825 32.5484 0.6825C33.4934 0.6825 33.8009 1.125 33.8534 1.665H34.6934C34.6934 0.795 34.1159 0 32.5484 0C30.7634 0 30.3359 1.14 30.3359 2.4525C30.3359 3.765 30.8234 4.905 32.5034 4.905Z" fill="white"/>
<path d="M35.3424 4.8525H38.6799V4.1775H36.1599V2.7375H38.4474V2.07H36.1599V0.7275H38.6799V0.0524998H35.3424V4.8525Z" fill="white"/>
<path d="M40.1114 4.8525H40.9139V0.7275H42.2939V0.0524998H38.7314V0.7275H40.1114V4.8525Z" fill="white"/>
<path d="M43.9492 4.8525H44.7742V0.0524998H43.9492V4.8525Z" fill="white"/>
<path d="M46.4185 4.8525H47.221V0.7275H48.601V0.0524998H45.0385V0.7275H46.4185V4.8525Z" fill="white"/>
<path d="M52.3862 4.905C54.2387 4.905 54.6737 3.7575 54.6737 2.46C54.6737 1.1325 54.2387 0 52.3862 0C50.5487 0 50.0987 1.1325 50.0987 2.445C50.0987 3.7575 50.5412 4.905 52.3862 4.905ZM50.9387 2.445C50.9387 1.4625 51.1937 0.6825 52.3862 0.6825C53.5937 0.6825 53.8412 1.4625 53.8412 2.46C53.8412 3.435 53.5937 4.2225 52.3862 4.2225C51.1937 4.2225 50.9387 3.435 50.9387 2.445Z" fill="white"/>
<path d="M55.2375 4.8525H56.0625V1.1025L58.575 4.8525H59.595V0.0524998H58.77V3.7725L56.295 0.0524998H55.2375V4.8525Z" fill="white"/>
</g>
</g>
<defs>
<linearGradient id="paint0_linear_3001_1173" x1="20.1339" y1="13.3562" x2="12.3125" y2="13.3562" gradientUnits="userSpaceOnUse">
<stop stop-color="#FFBC00"/>
<stop offset="1" stop-color="#FFDA03"/>
</linearGradient>
<linearGradient id="paint1_linear_3001_1173" x1="14.1519" y1="16.9057" x2="4.47359" y2="25.4061" gradientUnits="userSpaceOnUse">
<stop stop-color="#E22652"/>
<stop offset="1" stop-color="#FF3A44"/>
</linearGradient>
<linearGradient id="paint2_linear_3001_1173" x1="2.23593" y1="3.54858" x2="8.66267" y2="9.57001" gradientUnits="userSpaceOnUse">
<stop stop-color="#0ED574"/>
<stop offset="1" stop-color="#07F076"/>
</linearGradient>
<clipPath id="clip0_3001_1173">
<rect width="119" height="30" fill="white"/>
</clipPath>
<clipPath id="clip1_3001_1173">
<rect width="21.9987" height="23.0016" fill="white" transform="translate(0 1.85156)"/>
</clipPath>
<clipPath id="clip2_3001_1173">
<rect width="90" height="30" fill="white" transform="translate(29)"/>
</clipPath>
</defs>
</svg>
