<svg width="119" height="31" viewBox="0 0 119 31" fill="none" xmlns="http://www.w3.org/2000/svg">
<path fill-rule="evenodd" clip-rule="evenodd" d="M0.440627 2.35155C0.163089 2.62724 0 3.05419 0 3.60824V23.3876C0 23.9417 0.163089 24.3686 0.440627 24.6443L0.511204 24.7088L12.3175 13.6286V13.3673L0.511204 2.28711L0.440627 2.35155Z" fill="#00D7FE"/>
<mask id="mask0_2904_1256" style="mask-type:alpha" maskUnits="userSpaceOnUse" x="12" y="9" width="10" height="9">
<path d="M16.2467 17.3299L12.3125 13.635V13.3737L16.2486 9.67969L21.0001 12.2128C22.3315 12.9234 22.3315 14.0852 21.0001 14.795L16.3373 17.2816L16.2467 17.3299Z" fill="white"/>
</mask>
<g mask="url(#mask0_2904_1256)">
<path fill-rule="evenodd" clip-rule="evenodd" d="M16.2467 17.3299L12.3125 13.635V13.3737L16.2486 9.67969L21.0001 12.2128C22.3315 12.9234 22.3315 14.0852 21.0001 14.795L16.3373 17.2816L16.2467 17.3299Z" fill="url(#paint0_linear_2904_1256)"/>
</g>
<mask id="mask1_2904_1256" style="mask-type:alpha" maskUnits="userSpaceOnUse" x="0" y="13" width="17" height="13">
<path d="M16.3392 17.2772L12.3144 13.5L0.4375 24.6464C0.877174 25.0823 1.60202 25.136 2.41842 24.701L16.3392 17.2772Z" fill="white"/>
</mask>
<g mask="url(#mask1_2904_1256)">
<path fill-rule="evenodd" clip-rule="evenodd" d="M16.3392 17.2772L12.3144 13.5L0.4375 24.6464C0.877174 25.0823 1.60202 25.136 2.41842 24.701L16.3392 17.2772Z" fill="url(#paint1_linear_2904_1256)"/>
</g>
<mask id="mask2_2904_1256" style="mask-type:alpha" maskUnits="userSpaceOnUse" x="0" y="2" width="17" height="12">
<path d="M16.3392 9.72431L2.41842 2.30055C1.60202 1.86554 0.877174 1.91925 0.4375 2.35515L12.3144 13.5015L16.3392 9.72431Z" fill="white"/>
</mask>
<g mask="url(#mask2_2904_1256)">
<path fill-rule="evenodd" clip-rule="evenodd" d="M16.3392 9.72431L2.41842 2.30055C1.60202 1.86554 0.877174 1.91925 0.4375 2.35515L12.3144 13.5015L16.3392 9.72431Z" fill="url(#paint2_linear_2904_1256)"/>
</g>
<mask id="path-8-outside-1_2904_1256" maskUnits="userSpaceOnUse" x="28" y="11" width="91" height="20" fill="black">
<rect fill="white" x="28" y="11" width="91" height="20"/>
<path fill-rule="evenodd" clip-rule="evenodd" d="M98.1772 25.6916H100.136V12.4778H98.1772V25.6916ZM115.822 17.2375L113.576 22.9666H113.509L111.178 17.2375H109.068L112.563 25.2445L110.57 29.6987H112.614L118 17.2375H115.822ZM104.712 24.1906C104.07 24.1906 103.175 23.8682 103.175 23.0691C103.175 22.0491 104.29 21.658 105.252 21.658C106.114 21.658 106.518 21.8451 107.042 22.0998C106.89 23.3239 105.843 24.1906 104.712 24.1906ZM104.949 16.949C103.53 16.949 102.062 17.5779 101.454 18.9721L103.192 19.7025C103.564 18.9721 104.256 18.7332 104.982 18.7332C105.995 18.7332 107.025 19.3452 107.042 20.434V20.5693C106.687 20.3653 105.928 20.0598 104.999 20.0598C103.125 20.0598 101.216 21.0967 101.216 23.0342C101.216 24.8026 102.753 25.9421 104.475 25.9421C105.793 25.9421 106.518 25.347 106.975 24.6494H107.042V25.6694H108.933V20.6041C108.933 18.2576 107.194 16.949 104.949 16.949ZM92.842 18.8463H90.0557V14.317H92.842C94.3065 14.317 95.138 15.5378 95.138 16.5811C95.138 17.6054 94.3065 18.8463 92.842 18.8463ZM92.7916 12.4778H88.0978V25.6916H90.0557V20.6855H92.7916C94.9626 20.6855 97.0969 19.1021 97.0969 16.5811C97.0969 14.0601 94.9626 12.4778 92.7916 12.4778ZM67.1958 24.1927C65.8426 24.1927 64.7098 23.0522 64.7098 21.4857C64.7098 19.9023 65.8426 18.7438 67.1958 18.7438C68.5322 18.7438 69.58 19.9023 69.58 21.4857C69.58 23.0522 68.5322 24.1927 67.1958 24.1927ZM69.4445 17.9775H69.3773C68.9375 17.45 68.0924 16.9733 67.0268 16.9733C64.7938 16.9733 62.7477 18.9478 62.7477 21.4857C62.7477 24.0056 64.7938 25.9643 67.0268 25.9643C68.0924 25.9643 68.9375 25.4876 69.3773 24.9422H69.4445V25.5891C69.4445 27.3099 68.5322 28.2295 67.0604 28.2295C65.8594 28.2295 65.115 27.3606 64.8106 26.6281L63.1025 27.3437C63.5928 28.536 64.8956 30 67.0604 30C69.3605 30 71.3059 28.6375 71.3059 25.3174V17.2449H69.4445V17.9775ZM72.6591 25.6916H74.6212V12.4767H72.6591V25.6916ZM77.5124 21.3324C77.462 19.5957 78.8489 18.71 79.8462 18.71C80.6252 18.71 81.2845 19.1011 81.5039 19.6634L77.5124 21.3324ZM83.6014 19.8336C83.2298 18.8294 82.096 16.9733 79.779 16.9733C77.4788 16.9733 75.5682 18.7945 75.5682 21.4688C75.5682 23.9887 77.462 25.9643 79.9984 25.9643C82.0456 25.9643 83.2298 24.7043 83.7201 23.9718L82.1978 22.9497C81.6907 23.6991 80.9968 24.1927 79.9984 24.1927C79.0011 24.1927 78.2904 23.7329 77.8337 22.8313L83.804 20.3452L83.6014 19.8336ZM36.0359 18.3527V20.2596H40.568C40.4326 21.3324 40.0778 22.1157 39.5371 22.6611C38.8768 23.3249 37.8448 24.0564 36.0359 24.0564C33.2455 24.0564 31.0629 21.7922 31.0629 18.9827C31.0629 16.1721 33.2455 13.9079 36.0359 13.9079C37.5414 13.9079 38.6405 14.5041 39.4521 15.2704L40.7885 13.9248C39.6547 12.835 38.1503 12 36.0359 12C32.2135 12 29 15.1341 29 18.9827C29 22.8313 32.2135 25.9643 36.0359 25.9643C38.0988 25.9643 39.6547 25.2836 40.8725 24.0056C42.1239 22.7457 42.5134 20.9752 42.5134 19.544C42.5134 19.1011 42.4798 18.6931 42.4115 18.3527H36.0359ZM47.6669 24.1927C46.3137 24.1927 45.1463 23.0691 45.1463 21.4688C45.1463 19.8505 46.3137 18.7438 47.6669 18.7438C49.0191 18.7438 50.1865 19.8505 50.1865 21.4688C50.1865 23.0691 49.0191 24.1927 47.6669 24.1927ZM47.6669 16.9733C45.1967 16.9733 43.1842 18.8632 43.1842 21.4688C43.1842 24.0564 45.1967 25.9643 47.6669 25.9643C50.1361 25.9643 52.1486 24.0564 52.1486 21.4688C52.1486 18.8632 50.1361 16.9733 47.6669 16.9733ZM57.444 24.1927C56.0907 24.1927 54.9233 23.0691 54.9233 21.4688C54.9233 19.8505 56.0907 18.7438 57.444 18.7438C58.7972 18.7438 59.9636 19.8505 59.9636 21.4688C59.9636 23.0691 58.7972 24.1927 57.444 24.1927ZM57.444 16.9733C54.9748 16.9733 52.9623 18.8632 52.9623 21.4688C52.9623 24.0564 54.9748 25.9643 57.444 25.9643C59.9132 25.9643 61.9257 24.0564 61.9257 21.4688C61.9257 18.8632 59.9132 16.9733 57.444 16.9733Z"/>
</mask>
<path fill-rule="evenodd" clip-rule="evenodd" d="M98.1772 25.6916H100.136V12.4778H98.1772V25.6916ZM115.822 17.2375L113.576 22.9666H113.509L111.178 17.2375H109.068L112.563 25.2445L110.57 29.6987H112.614L118 17.2375H115.822ZM104.712 24.1906C104.07 24.1906 103.175 23.8682 103.175 23.0691C103.175 22.0491 104.29 21.658 105.252 21.658C106.114 21.658 106.518 21.8451 107.042 22.0998C106.89 23.3239 105.843 24.1906 104.712 24.1906ZM104.949 16.949C103.53 16.949 102.062 17.5779 101.454 18.9721L103.192 19.7025C103.564 18.9721 104.256 18.7332 104.982 18.7332C105.995 18.7332 107.025 19.3452 107.042 20.434V20.5693C106.687 20.3653 105.928 20.0598 104.999 20.0598C103.125 20.0598 101.216 21.0967 101.216 23.0342C101.216 24.8026 102.753 25.9421 104.475 25.9421C105.793 25.9421 106.518 25.347 106.975 24.6494H107.042V25.6694H108.933V20.6041C108.933 18.2576 107.194 16.949 104.949 16.949ZM92.842 18.8463H90.0557V14.317H92.842C94.3065 14.317 95.138 15.5378 95.138 16.5811C95.138 17.6054 94.3065 18.8463 92.842 18.8463ZM92.7916 12.4778H88.0978V25.6916H90.0557V20.6855H92.7916C94.9626 20.6855 97.0969 19.1021 97.0969 16.5811C97.0969 14.0601 94.9626 12.4778 92.7916 12.4778ZM67.1958 24.1927C65.8426 24.1927 64.7098 23.0522 64.7098 21.4857C64.7098 19.9023 65.8426 18.7438 67.1958 18.7438C68.5322 18.7438 69.58 19.9023 69.58 21.4857C69.58 23.0522 68.5322 24.1927 67.1958 24.1927ZM69.4445 17.9775H69.3773C68.9375 17.45 68.0924 16.9733 67.0268 16.9733C64.7938 16.9733 62.7477 18.9478 62.7477 21.4857C62.7477 24.0056 64.7938 25.9643 67.0268 25.9643C68.0924 25.9643 68.9375 25.4876 69.3773 24.9422H69.4445V25.5891C69.4445 27.3099 68.5322 28.2295 67.0604 28.2295C65.8594 28.2295 65.115 27.3606 64.8106 26.6281L63.1025 27.3437C63.5928 28.536 64.8956 30 67.0604 30C69.3605 30 71.3059 28.6375 71.3059 25.3174V17.2449H69.4445V17.9775ZM72.6591 25.6916H74.6212V12.4767H72.6591V25.6916ZM77.5124 21.3324C77.462 19.5957 78.8489 18.71 79.8462 18.71C80.6252 18.71 81.2845 19.1011 81.5039 19.6634L77.5124 21.3324ZM83.6014 19.8336C83.2298 18.8294 82.096 16.9733 79.779 16.9733C77.4788 16.9733 75.5682 18.7945 75.5682 21.4688C75.5682 23.9887 77.462 25.9643 79.9984 25.9643C82.0456 25.9643 83.2298 24.7043 83.7201 23.9718L82.1978 22.9497C81.6907 23.6991 80.9968 24.1927 79.9984 24.1927C79.0011 24.1927 78.2904 23.7329 77.8337 22.8313L83.804 20.3452L83.6014 19.8336ZM36.0359 18.3527V20.2596H40.568C40.4326 21.3324 40.0778 22.1157 39.5371 22.6611C38.8768 23.3249 37.8448 24.0564 36.0359 24.0564C33.2455 24.0564 31.0629 21.7922 31.0629 18.9827C31.0629 16.1721 33.2455 13.9079 36.0359 13.9079C37.5414 13.9079 38.6405 14.5041 39.4521 15.2704L40.7885 13.9248C39.6547 12.835 38.1503 12 36.0359 12C32.2135 12 29 15.1341 29 18.9827C29 22.8313 32.2135 25.9643 36.0359 25.9643C38.0988 25.9643 39.6547 25.2836 40.8725 24.0056C42.1239 22.7457 42.5134 20.9752 42.5134 19.544C42.5134 19.1011 42.4798 18.6931 42.4115 18.3527H36.0359ZM47.6669 24.1927C46.3137 24.1927 45.1463 23.0691 45.1463 21.4688C45.1463 19.8505 46.3137 18.7438 47.6669 18.7438C49.0191 18.7438 50.1865 19.8505 50.1865 21.4688C50.1865 23.0691 49.0191 24.1927 47.6669 24.1927ZM47.6669 16.9733C45.1967 16.9733 43.1842 18.8632 43.1842 21.4688C43.1842 24.0564 45.1967 25.9643 47.6669 25.9643C50.1361 25.9643 52.1486 24.0564 52.1486 21.4688C52.1486 18.8632 50.1361 16.9733 47.6669 16.9733ZM57.444 24.1927C56.0907 24.1927 54.9233 23.0691 54.9233 21.4688C54.9233 19.8505 56.0907 18.7438 57.444 18.7438C58.7972 18.7438 59.9636 19.8505 59.9636 21.4688C59.9636 23.0691 58.7972 24.1927 57.444 24.1927ZM57.444 16.9733C54.9748 16.9733 52.9623 18.8632 52.9623 21.4688C52.9623 24.0564 54.9748 25.9643 57.444 25.9643C59.9132 25.9643 61.9257 24.0564 61.9257 21.4688C61.9257 18.8632 59.9132 16.9733 57.444 16.9733Z" fill="#222B40"/>
<path fill-rule="evenodd" clip-rule="evenodd" d="M98.1772 25.6916H100.136V12.4778H98.1772V25.6916ZM115.822 17.2375L113.576 22.9666H113.509L111.178 17.2375H109.068L112.563 25.2445L110.57 29.6987H112.614L118 17.2375H115.822ZM104.712 24.1906C104.07 24.1906 103.175 23.8682 103.175 23.0691C103.175 22.0491 104.29 21.658 105.252 21.658C106.114 21.658 106.518 21.8451 107.042 22.0998C106.89 23.3239 105.843 24.1906 104.712 24.1906ZM104.949 16.949C103.53 16.949 102.062 17.5779 101.454 18.9721L103.192 19.7025C103.564 18.9721 104.256 18.7332 104.982 18.7332C105.995 18.7332 107.025 19.3452 107.042 20.434V20.5693C106.687 20.3653 105.928 20.0598 104.999 20.0598C103.125 20.0598 101.216 21.0967 101.216 23.0342C101.216 24.8026 102.753 25.9421 104.475 25.9421C105.793 25.9421 106.518 25.347 106.975 24.6494H107.042V25.6694H108.933V20.6041C108.933 18.2576 107.194 16.949 104.949 16.949ZM92.842 18.8463H90.0557V14.317H92.842C94.3065 14.317 95.138 15.5378 95.138 16.5811C95.138 17.6054 94.3065 18.8463 92.842 18.8463ZM92.7916 12.4778H88.0978V25.6916H90.0557V20.6855H92.7916C94.9626 20.6855 97.0969 19.1021 97.0969 16.5811C97.0969 14.0601 94.9626 12.4778 92.7916 12.4778ZM67.1958 24.1927C65.8426 24.1927 64.7098 23.0522 64.7098 21.4857C64.7098 19.9023 65.8426 18.7438 67.1958 18.7438C68.5322 18.7438 69.58 19.9023 69.58 21.4857C69.58 23.0522 68.5322 24.1927 67.1958 24.1927ZM69.4445 17.9775H69.3773C68.9375 17.45 68.0924 16.9733 67.0268 16.9733C64.7938 16.9733 62.7477 18.9478 62.7477 21.4857C62.7477 24.0056 64.7938 25.9643 67.0268 25.9643C68.0924 25.9643 68.9375 25.4876 69.3773 24.9422H69.4445V25.5891C69.4445 27.3099 68.5322 28.2295 67.0604 28.2295C65.8594 28.2295 65.115 27.3606 64.8106 26.6281L63.1025 27.3437C63.5928 28.536 64.8956 30 67.0604 30C69.3605 30 71.3059 28.6375 71.3059 25.3174V17.2449H69.4445V17.9775ZM72.6591 25.6916H74.6212V12.4767H72.6591V25.6916ZM77.5124 21.3324C77.462 19.5957 78.8489 18.71 79.8462 18.71C80.6252 18.71 81.2845 19.1011 81.5039 19.6634L77.5124 21.3324ZM83.6014 19.8336C83.2298 18.8294 82.096 16.9733 79.779 16.9733C77.4788 16.9733 75.5682 18.7945 75.5682 21.4688C75.5682 23.9887 77.462 25.9643 79.9984 25.9643C82.0456 25.9643 83.2298 24.7043 83.7201 23.9718L82.1978 22.9497C81.6907 23.6991 80.9968 24.1927 79.9984 24.1927C79.0011 24.1927 78.2904 23.7329 77.8337 22.8313L83.804 20.3452L83.6014 19.8336ZM36.0359 18.3527V20.2596H40.568C40.4326 21.3324 40.0778 22.1157 39.5371 22.6611C38.8768 23.3249 37.8448 24.0564 36.0359 24.0564C33.2455 24.0564 31.0629 21.7922 31.0629 18.9827C31.0629 16.1721 33.2455 13.9079 36.0359 13.9079C37.5414 13.9079 38.6405 14.5041 39.4521 15.2704L40.7885 13.9248C39.6547 12.835 38.1503 12 36.0359 12C32.2135 12 29 15.1341 29 18.9827C29 22.8313 32.2135 25.9643 36.0359 25.9643C38.0988 25.9643 39.6547 25.2836 40.8725 24.0056C42.1239 22.7457 42.5134 20.9752 42.5134 19.544C42.5134 19.1011 42.4798 18.6931 42.4115 18.3527H36.0359ZM47.6669 24.1927C46.3137 24.1927 45.1463 23.0691 45.1463 21.4688C45.1463 19.8505 46.3137 18.7438 47.6669 18.7438C49.0191 18.7438 50.1865 19.8505 50.1865 21.4688C50.1865 23.0691 49.0191 24.1927 47.6669 24.1927ZM47.6669 16.9733C45.1967 16.9733 43.1842 18.8632 43.1842 21.4688C43.1842 24.0564 45.1967 25.9643 47.6669 25.9643C50.1361 25.9643 52.1486 24.0564 52.1486 21.4688C52.1486 18.8632 50.1361 16.9733 47.6669 16.9733ZM57.444 24.1927C56.0907 24.1927 54.9233 23.0691 54.9233 21.4688C54.9233 19.8505 56.0907 18.7438 57.444 18.7438C58.7972 18.7438 59.9636 19.8505 59.9636 21.4688C59.9636 23.0691 58.7972 24.1927 57.444 24.1927ZM57.444 16.9733C54.9748 16.9733 52.9623 18.8632 52.9623 21.4688C52.9623 24.0564 54.9748 25.9643 57.444 25.9643C59.9132 25.9643 61.9257 24.0564 61.9257 21.4688C61.9257 18.8632 59.9132 16.9733 57.444 16.9733Z" stroke="#222B40" stroke-width="0.2" mask="url(#path-8-outside-1_2904_1256)"/>
<path d="M32.5034 5.05344C33.2984 5.05344 33.7559 4.73844 34.0409 4.25844L34.2434 5.00094H34.7159V2.32344H32.4884V2.99844H33.8984C33.8984 3.82344 33.4634 4.36344 32.5484 4.36344C31.4384 4.36344 31.1759 3.58344 31.1759 2.60094C31.1759 1.61844 31.4159 0.830937 32.5484 0.830937C33.4934 0.830937 33.8009 1.27344 33.8534 1.81344H34.6934C34.6934 0.943437 34.1159 0.148438 32.5484 0.148438C30.7634 0.148438 30.3359 1.28844 30.3359 2.60094C30.3359 3.91344 30.8234 5.05344 32.5034 5.05344Z" fill="#222B40"/>
<path d="M35.3424 5.00094H38.6799V4.32594H36.1599V2.88594H38.4474V2.21844H36.1599V0.875938H38.6799V0.200937H35.3424V5.00094Z" fill="#222B40"/>
<path d="M40.1114 5.00094H40.9139V0.875938H42.2939V0.200937H38.7314V0.875938H40.1114V5.00094Z" fill="#222B40"/>
<path d="M43.9492 5.00094H44.7742V0.200937H43.9492V5.00094Z" fill="#222B40"/>
<path d="M46.4185 5.00094H47.221V0.875938H48.601V0.200937H45.0385V0.875938H46.4185V5.00094Z" fill="#222B40"/>
<path d="M52.3862 5.05344C54.2387 5.05344 54.6737 3.90594 54.6737 2.60844C54.6737 1.28094 54.2387 0.148438 52.3862 0.148438C50.5487 0.148438 50.0987 1.28094 50.0987 2.59344C50.0987 3.90594 50.5412 5.05344 52.3862 5.05344ZM50.9387 2.59344C50.9387 1.61094 51.1937 0.830937 52.3862 0.830937C53.5937 0.830937 53.8412 1.61094 53.8412 2.60844C53.8412 3.58344 53.5937 4.37094 52.3862 4.37094C51.1937 4.37094 50.9387 3.58344 50.9387 2.59344Z" fill="#222B40"/>
<path d="M55.2375 5.00094H56.0625V1.25094L58.575 5.00094H59.595V0.200937H58.77V3.92094L56.295 0.200937H55.2375V5.00094Z" fill="#222B40"/>
<defs>
<linearGradient id="paint0_linear_2904_1256" x1="20.1339" y1="13.5046" x2="12.3125" y2="13.5046" gradientUnits="userSpaceOnUse">
<stop stop-color="#FFBC00"/>
<stop offset="1" stop-color="#FFDA03"/>
</linearGradient>
<linearGradient id="paint1_linear_2904_1256" x1="14.1519" y1="17.0542" x2="4.47359" y2="25.5545" gradientUnits="userSpaceOnUse">
<stop stop-color="#E22652"/>
<stop offset="1" stop-color="#FF3A44"/>
</linearGradient>
<linearGradient id="paint2_linear_2904_1256" x1="2.23593" y1="3.69702" x2="8.66267" y2="9.71845" gradientUnits="userSpaceOnUse">
<stop stop-color="#0ED574"/>
<stop offset="1" stop-color="#07F076"/>
</linearGradient>
</defs>
</svg>
