<svg width="120" height="120" viewBox="0 0 120 120" fill="none" xmlns="http://www.w3.org/2000/svg">
<ellipse cx="60.3657" cy="59.7962" rx="59.4765" ry="59.6843" transform="rotate(15 60.3657 59.7962)" fill="#F8B940"/>
<path d="M28.0817 32.6025L27.5363 32.2035L25.7143 34.7106L20.2231 30.7037L19.7819 31.3093L25.8185 35.7153L28.0817 32.6025ZM32.174 28.2824L31.6918 27.8055L29.3424 30.1917L27.3823 28.2519L29.6535 25.9451L29.1713 25.4683L26.9001 27.7751L24.9906 25.8835L27.34 23.4973L26.8578 23.0205L23.9868 25.9442L29.2977 31.2041L32.174 28.2824ZM31.9055 18.9628L33.5384 26.9449L34.1785 26.4995L33.6417 23.804L36.498 21.8132L38.8173 23.2654L39.4905 22.7961L32.5953 18.4816L31.9055 18.9628ZM35.8725 21.425L33.4901 23.0842L32.7384 19.4185L35.8725 21.425ZM44.133 15.1614C43.6346 13.9991 42.3822 13.284 40.5905 14.06L38.5217 14.9563L41.4743 21.8373L42.1598 21.5398L39.4759 15.2825L40.7839 14.7169C42.3618 14.0343 43.1591 14.7915 43.4382 15.4421C43.8402 16.3802 43.3845 17.3182 42.1688 17.8436L41.5001 18.1318L45.1647 20.2386L46.0276 19.8641L42.9878 18.138C44.1539 17.5235 44.6114 16.2775 44.133 15.1614ZM51.8968 10.6595L53.1598 16.7433L53.14 16.7479L47.7944 11.5222L46.8056 11.7315L48.3272 19.0661L49.0576 18.9115L47.7192 12.4588L47.739 12.4542L53.4181 17.9916L54.1486 17.837L52.6272 10.5049L51.8968 10.6595ZM66.818 15.4685L70.2239 16.1489L70.7876 18.834L71.5906 18.9951L69.9148 11.0148L69.0937 10.8504L64.491 17.575L65.2525 17.7277L66.818 15.4685ZM69.3415 11.7689L70.0696 15.4269L67.2282 14.8585L69.3415 11.7689ZM78.8914 19.6207C79.1972 18.8815 79.0578 18.0562 78.4475 17.4424C79.1799 17.2317 79.5429 16.932 79.7794 16.3603C80.2138 15.3126 79.7683 14.1958 78.3222 13.5973L76.5526 12.8619L73.6883 19.7881L75.7387 20.6395C77.5397 21.3844 78.4997 20.5647 78.8914 19.6207ZM76.9824 13.7743L78.0182 14.204C79.2949 14.7334 79.3147 15.5305 79.103 16.0461C78.9356 16.4477 78.424 17.1344 77.0997 16.587L76.0084 16.1351L76.9824 13.7743ZM75.7494 16.76L77.0553 17.3016C78.0725 17.7231 78.5291 18.5487 78.2025 19.3332C77.7888 20.3355 76.8314 20.3533 75.9442 19.9871L74.6382 19.4454L75.7494 16.76ZM83.1013 24.7834C84.8928 26.0103 87.3599 25.5638 88.5506 23.8143C89.7523 22.0484 89.2583 19.6004 87.4668 18.3736C85.659 17.1357 83.2166 17.5999 82.0013 19.3826C80.7775 21.1813 81.419 23.6318 83.1013 24.7834ZM82.6201 19.8045C83.601 18.3643 85.6203 17.9312 87.0789 18.9279C88.5621 19.9423 88.9042 21.9683 87.9301 23.4002C86.9602 24.824 84.9587 25.2323 83.4835 24.2221C82.0496 23.2433 81.6677 21.2011 82.6201 19.8045ZM89.9134 30.6335C90.9009 31.6891 92.3685 31.8221 93.747 30.5239L97.204 27.2723L96.6945 26.727L93.2142 29.9989C92.0278 31.1143 90.9957 30.7962 90.4096 30.1698C89.7323 29.4459 89.6669 28.3991 90.765 27.3641L94.2358 24.0983L93.7264 23.553L90.2832 26.7905C88.8675 28.1231 88.9403 29.5941 89.9134 30.6335ZM93.9475 35.4632L94.3632 36.0843L100.011 32.2851L100.959 33.7062L101.522 33.3272L99.2039 29.8569L98.6409 30.2359L99.595 31.664L93.9475 35.4632ZM100.454 51.5041L107.797 50.1124L107.659 49.376L100.316 50.7677L100.454 51.5041ZM108.459 54.9733L108.422 53.9617L100.955 54.2491L100.983 54.997L107.553 54.744L107.552 54.7644L101.145 59.4592L101.173 60.2071L108.64 59.9197L108.612 59.1718L102.417 59.4114L102.417 59.391L108.459 54.9733ZM100.406 66.2237L107.225 70.5793L107.365 69.7809L101.382 66.0361L108.283 64.5655L108.426 63.7465L100.533 65.4955L100.406 66.2237ZM97.7677 75.0759L98.4007 75.3132L99.5697 72.1713L102.152 73.1356L101.02 76.1718L101.653 76.4091L102.785 73.3729L105.301 74.3109L104.132 77.4528L104.765 77.6901L106.195 73.8467L99.1958 71.2353L97.7677 75.0759ZM101.717 79.8203C100.528 79.152 99.72 79.8719 98.932 80.661C98.2054 81.3801 97.5477 81.6264 96.8428 81.2312C96.1299 80.8316 95.8711 79.9296 96.2857 79.1868C96.7263 78.4006 97.5339 78.1566 98.3941 78.5815L98.7593 77.9278C97.5887 77.2933 96.3429 77.6972 95.6964 78.8559C95.0842 79.9525 95.4389 81.3002 96.5045 81.8999C97.3844 82.3941 98.3824 82.3263 99.5337 81.1153C100.291 80.3217 100.822 80.1777 101.376 80.4893C102.011 80.8459 102.226 81.6406 101.85 82.3107C101.508 82.9212 100.692 83.1814 100.022 82.8054L99.6568 83.4591C100.66 84.0219 101.872 83.6572 102.439 82.6416C103.004 81.6338 102.747 80.3981 101.717 79.8203ZM98.1562 87.7373L92.7703 83.5922L92.3154 84.1865L97.7013 88.3316L96.6614 89.6914L97.1981 90.1041L99.7397 86.7844L99.2031 86.3717L98.1562 87.7373ZM89.4005 87.7052L93.7878 92.7147L93.7715 92.7291L87.2967 89.5595L86.8191 89.9805L89.1051 96.844L89.0888 96.8584L84.7015 91.849L84.1401 92.3448L89.0669 97.9703L89.931 97.2064L87.7838 90.611L94.022 93.5989L94.8861 92.835L89.9594 87.2096L89.4005 87.7052ZM78.1574 95.8149L78.4863 96.4068L81.4065 94.7708L82.7472 97.1845L79.9256 98.767L80.2545 99.359L83.0761 97.7765L84.3825 100.128L81.4623 101.764L81.7912 102.356L85.3621 100.354L81.7258 93.8139L78.1574 95.8149ZM75.1644 97.1581L77.2511 103.406L77.2315 103.413L70.9416 98.5855L70.2324 98.8244L72.6059 105.926L73.3151 105.687L71.3455 99.7932L71.3651 99.7861L77.2876 104.344L78.2446 104.021L75.8711 96.9195L75.1644 97.1581ZM67.3873 106.265L66.3779 99.5291L65.6381 99.6413L66.6475 106.377L64.9605 106.634L65.0614 107.305L69.185 106.677L69.084 106.005L67.3873 106.265ZM52.1009 99.1781C50.8713 98.939 49.7053 99.7037 49.472 100.909C49.2783 101.903 49.654 102.832 51.1601 103.546C52.1492 104.016 52.4495 104.476 52.3276 105.102C52.1895 105.819 51.5048 106.274 50.7515 106.128C50.0681 105.995 49.5663 105.299 49.7131 104.543L48.9804 104.4C48.7601 105.533 49.4845 106.572 50.6234 106.793C51.752 107.012 52.8424 106.377 53.0698 105.214C53.3297 103.871 52.3968 103.329 51.4046 102.828C50.4972 102.363 50.0586 101.815 50.2141 101.02C50.3711 100.215 51.1419 99.6821 51.9756 99.8452C52.8582 100.016 53.3395 100.709 53.2051 101.662L53.9377 101.805C54.1723 100.488 53.4004 99.4304 52.1009 99.1781ZM45.9935 97.6323L43.7419 104.068L42.1318 103.504L41.9075 104.146L45.8409 105.525L46.0653 104.883L44.4446 104.315L46.6962 97.8802L45.9935 97.6323ZM41.8584 95.9153L38.6346 101.922L37.3812 101.247C35.8702 100.434 35.967 99.3352 36.3021 98.71C36.7868 97.8073 37.7994 97.5828 38.9643 98.2103L39.6056 98.5536L38.9781 94.361L38.1513 93.9147L38.6873 97.3788C37.4838 96.8469 36.2291 97.2619 35.655 98.3342C35.0574 99.4497 35.2758 100.88 36.991 101.805L38.9744 102.872L42.5182 96.2669L41.8584 95.9153ZM36.0064 92.5056L33.5684 93.766L30.8835 91.5602L31.6441 88.9213L31.0129 88.4013L28.7564 96.2418L29.404 96.7728L36.6095 92.998L36.0064 92.5056ZM29.6098 95.848L30.6789 92.2711L32.9181 94.1107L29.6098 95.848ZM29.556 86.669L29.0556 86.1126L24.0008 90.6775L22.8596 89.4062L22.3574 89.8603L25.1436 92.9666L25.6457 92.5125L24.4987 91.2342L29.556 86.669ZM24.4255 79.8075L23.8594 80.1817L25.7004 82.9762L23.3985 84.5024L21.6201 81.8007L21.0565 82.1746L22.8349 84.8763L20.5924 86.3632L18.7513 83.5688L18.1853 83.943L20.4374 87.3642L26.6749 83.2265L24.4255 79.8075ZM19.771 79.3531C21.8435 78.5175 22.6322 76.0818 21.8706 74.1731C21.096 72.2377 19.0198 71.2313 17.0937 71.8329L18.9796 76.5492L19.6087 76.2957L18.0586 72.415C19.3868 72.2494 20.7304 73.1383 21.2334 74.3969C21.8932 76.0514 21.182 77.9752 19.5047 78.6529C17.8445 79.3236 15.9722 78.4513 15.3194 76.8164C14.9215 75.8192 15.0481 74.6126 15.6718 73.8049L15.3488 72.9959C14.5362 73.7927 14.0716 75.5205 14.6939 77.0796C15.5095 79.1202 17.7839 80.1545 19.771 79.3531ZM19.6722 67.3234L12.3571 68.8624L12.5099 69.5948L19.8251 68.0558L19.6722 67.3234ZM18.7658 60.5511L18.0923 60.6158L18.4022 63.9532L15.6601 64.2143L15.3588 60.988L14.6853 61.0527L14.9865 64.279L12.3122 64.5331L12.0022 61.1958L11.3286 61.2605L11.7091 65.3438L19.1488 64.6342L18.7658 60.5511ZM13.149 58.0104C14.51 58.0933 14.9264 57.0933 15.2943 56.0398C15.6382 55.0753 16.1248 54.5668 16.9319 54.6181C17.749 54.6683 18.3727 55.3646 18.3192 56.2151C18.2631 57.1142 17.6408 57.6851 16.6808 57.6776L16.6347 58.4255C17.9655 58.4862 18.9141 57.5786 18.9957 56.2544C19.0742 54.9993 18.1676 53.9404 16.9496 53.8655C15.941 53.8046 15.0699 54.2994 14.5562 55.8923C14.2179 56.9377 13.8 57.2965 13.1667 57.2578C12.4415 57.2133 11.9041 56.592 11.9506 55.8237C11.9943 55.127 12.6171 54.5357 13.383 54.581L13.4291 53.8332C12.2801 53.7639 11.3465 54.6189 11.2739 55.7819C11.2005 56.9372 11.9694 57.9391 13.149 58.0104Z" fill="#222B40"/>
<ellipse rx="5.94904" ry="5.96704" transform="matrix(1 -0.00087323 -0.000870585 1 60.2993 59.3993)" fill="#222B40"/>
</svg>
