<svg width="772" height="321" viewBox="0 0 772 321" fill="none" xmlns="http://www.w3.org/2000/svg">
<rect width="772" height="321" fill="#583BAC"/>
<line opacity="0.1" x1="64" y1="225.532" x2="739" y2="225.531" stroke="#F8F6F1" stroke-width="0.936975"/>
<line opacity="0.1" x1="64" y1="177.532" x2="739" y2="177.531" stroke="#F8F6F1" stroke-width="0.936975"/>
<line opacity="0.1" x1="64" y1="129.532" x2="739" y2="129.531" stroke="#F8F6F1" stroke-width="0.936975"/>
<line opacity="0.1" x1="64" y1="81.5315" x2="739" y2="81.5315" stroke="#F8F6F1" stroke-width="0.936975"/>
<path d="M64.4685 275.532L64.4685 32.4685L739.531 32.4685L739.531 275.531L64.4685 275.532Z" stroke="#F8F6F1" stroke-opacity="0.1" stroke-width="0.936975"/>
<path opacity="0.5" d="M19.312 63.572H20.464V62.06C22.204 61.928 23.128 61.1 23.128 59.768C23.128 58.412 22.168 58.052 20.236 57.584C18.748 57.224 18.088 57.08 18.088 56.336C18.088 55.664 18.616 55.34 19.756 55.34C21.076 55.34 21.64 55.808 21.712 56.936H23.02C22.996 55.328 22.144 54.44 20.464 54.272V53H19.312V54.248C17.716 54.368 16.792 55.064 16.792 56.384C16.792 57.74 17.752 58.136 19.78 58.616C21.112 58.928 21.832 59.06 21.832 59.852C21.832 60.584 21.208 60.944 20.032 60.944C18.604 60.944 17.944 60.392 17.884 59.252H16.564C16.576 60.968 17.548 61.892 19.312 62.06V63.572ZM30.4145 62.084C32.4545 62.084 33.2825 60.872 33.2825 59.48C33.2825 57.548 31.8065 56.972 30.4745 56.972H29.0225V55.4H32.8865L32.8985 54.32H27.7265V58.016H30.1025C31.5065 58.016 31.9865 58.58 31.9865 59.48C31.9865 60.248 31.5545 61.004 30.4625 61.004C29.2865 61.004 28.7825 60.356 28.7825 59.36H27.4985C27.4985 60.908 28.3145 62.084 30.4145 62.084ZM37.4891 62.084C40.0811 62.084 40.6931 60.452 40.6931 58.172C40.6931 55.868 40.0811 54.236 37.4891 54.236C34.9211 54.236 34.3091 55.868 34.3091 58.16C34.3091 60.452 34.9091 62.084 37.4891 62.084ZM35.6291 58.16C35.6291 56.432 35.9291 55.328 37.4891 55.328C39.0851 55.328 39.3731 56.432 39.3731 58.172C39.3731 59.888 39.0851 60.98 37.4891 60.98C35.9051 60.98 35.6291 59.888 35.6291 58.16ZM42.0293 62H43.3133V59.24L45.9053 62H47.6573L44.2853 58.76L47.4173 55.856H45.6293L43.3133 58.268V53.516H42.0293V62Z" fill="#F8F6F1"/>
<path opacity="0.5" d="M19.312 111.572H20.464V110.06C22.204 109.928 23.128 109.1 23.128 107.768C23.128 106.412 22.168 106.052 20.236 105.584C18.748 105.224 18.088 105.08 18.088 104.336C18.088 103.664 18.616 103.34 19.756 103.34C21.076 103.34 21.64 103.808 21.712 104.936H23.02C22.996 103.328 22.144 102.44 20.464 102.272V101H19.312V102.248C17.716 102.368 16.792 103.064 16.792 104.384C16.792 105.74 17.752 106.136 19.78 106.616C21.112 106.928 21.832 107.06 21.832 107.852C21.832 108.584 21.208 108.944 20.032 108.944C18.604 108.944 17.944 108.392 17.884 107.252H16.564C16.576 108.968 17.548 109.892 19.312 110.06V111.572ZM31.1345 110H32.4545V108.392H33.7985V107.336H32.4545V102.32H30.7025L27.0785 107.192V108.392H31.1345V110ZM28.3385 107.336L31.1345 103.628V107.336H28.3385ZM37.8055 110.084C40.3975 110.084 41.0095 108.452 41.0095 106.172C41.0095 103.868 40.3975 102.236 37.8055 102.236C35.2375 102.236 34.6255 103.868 34.6255 106.16C34.6255 108.452 35.2255 110.084 37.8055 110.084ZM35.9455 106.16C35.9455 104.432 36.2455 103.328 37.8055 103.328C39.4015 103.328 39.6895 104.432 39.6895 106.172C39.6895 107.888 39.4015 108.98 37.8055 108.98C36.2215 108.98 35.9455 107.888 35.9455 106.16ZM42.3457 110H43.6297V107.24L46.2217 110H47.9737L44.6017 106.76L47.7337 103.856H45.9457L43.6297 106.268V101.516H42.3457V110Z" fill="#F8F6F1"/>
<path opacity="0.5" d="M20.312 159.572H21.464V158.06C23.204 157.928 24.128 157.1 24.128 155.768C24.128 154.412 23.168 154.052 21.236 153.584C19.748 153.224 19.088 153.08 19.088 152.336C19.088 151.664 19.616 151.34 20.756 151.34C22.076 151.34 22.64 151.808 22.712 152.936H24.02C23.996 151.328 23.144 150.44 21.464 150.272V149H20.312V150.248C18.716 150.368 17.792 151.064 17.792 152.384C17.792 153.74 18.752 154.136 20.78 154.616C22.112 154.928 22.832 155.06 22.832 155.852C22.832 156.584 22.208 156.944 21.032 156.944C19.604 156.944 18.944 156.392 18.884 155.252H17.564C17.576 156.968 18.548 157.892 20.312 158.06V159.572ZM31.1985 158.084C33.2385 158.084 34.0665 156.92 34.0665 155.588C34.0665 153.812 32.6985 153.2 31.1985 153.2L33.7785 151.7V150.32H28.5585V151.4H32.3385L29.6265 153.212V154.172H30.7785C32.3865 154.172 32.7825 154.772 32.7825 155.588C32.7825 156.32 32.3385 157.004 31.2465 157.004C30.0825 157.004 29.5185 156.356 29.5185 155.36H28.2825C28.2825 156.908 29.0985 158.084 31.1985 158.084ZM38.4188 158.084C41.0108 158.084 41.6228 156.452 41.6228 154.172C41.6228 151.868 41.0108 150.236 38.4188 150.236C35.8508 150.236 35.2388 151.868 35.2388 154.16C35.2388 156.452 35.8388 158.084 38.4188 158.084ZM36.5588 154.16C36.5588 152.432 36.8588 151.328 38.4188 151.328C40.0148 151.328 40.3028 152.432 40.3028 154.172C40.3028 155.888 40.0148 156.98 38.4188 156.98C36.8348 156.98 36.5588 155.888 36.5588 154.16ZM42.959 158H44.243V155.24L46.835 158H48.587L45.215 154.76L48.347 151.856H46.559L44.243 154.268V149.516H42.959V158Z" fill="#F8F6F1"/>
<path opacity="0.5" d="M23.312 207.572H24.464V206.06C26.204 205.928 27.128 205.1 27.128 203.768C27.128 202.412 26.168 202.052 24.236 201.584C22.748 201.224 22.088 201.08 22.088 200.336C22.088 199.664 22.616 199.34 23.756 199.34C25.076 199.34 25.64 199.808 25.712 200.936H27.02C26.996 199.328 26.144 198.44 24.464 198.272V197H23.312V198.248C21.716 198.368 20.792 199.064 20.792 200.384C20.792 201.74 21.752 202.136 23.78 202.616C25.112 202.928 25.832 203.06 25.832 203.852C25.832 204.584 25.208 204.944 24.032 204.944C22.604 204.944 21.944 204.392 21.884 203.252H20.564C20.576 204.968 21.548 205.892 23.312 206.06V207.572ZM37.1145 206.012V204.92H32.6385V204.776C32.6385 202.88 36.9825 203.432 37.1265 200.768C37.1985 199.316 36.4065 198.236 34.2585 198.236C32.1585 198.236 31.4385 199.412 31.4385 200.972H32.7225C32.7225 199.976 33.1185 199.316 34.2945 199.316C35.4345 199.316 35.8785 199.856 35.8185 200.696C35.7225 202.496 31.3785 201.884 31.3665 204.836V206L37.1145 206.012ZM41.4774 206.084C44.0694 206.084 44.6814 204.452 44.6814 202.172C44.6814 199.868 44.0694 198.236 41.4774 198.236C38.9094 198.236 38.2974 199.868 38.2974 202.16C38.2974 204.452 38.8974 206.084 41.4774 206.084ZM39.6174 202.16C39.6174 200.432 39.9174 199.328 41.4774 199.328C43.0734 199.328 43.3614 200.432 43.3614 202.172C43.3614 203.888 43.0734 204.98 41.4774 204.98C39.8934 204.98 39.6174 203.888 39.6174 202.16ZM46.0176 206H47.3016V203.24L49.8936 206H51.6456L48.2736 202.76L51.4056 199.856H49.6176L47.3016 202.268V197.516H46.0176V206Z" fill="#F8F6F1"/>
<path opacity="0.5" d="M22.312 256.572H23.464V255.06C25.204 254.928 26.128 254.1 26.128 252.768C26.128 251.412 25.168 251.052 23.236 250.584C21.748 250.224 21.088 250.08 21.088 249.336C21.088 248.664 21.616 248.34 22.756 248.34C24.076 248.34 24.64 248.808 24.712 249.936H26.02C25.996 248.328 25.144 247.44 23.464 247.272V246H22.312V247.248C20.716 247.368 19.792 248.064 19.792 249.384C19.792 250.74 20.752 251.136 22.78 251.616C24.112 251.928 24.832 252.06 24.832 252.852C24.832 253.584 24.208 253.944 23.032 253.944C21.604 253.944 20.944 253.392 20.884 252.252H19.564C19.576 253.968 20.548 254.892 22.312 255.06V256.572ZM31.4585 255H32.7785V247.32H31.4945L29.9945 247.5V248.4H31.4585V255ZM37.4422 255.084C40.0342 255.084 40.6462 253.452 40.6462 251.172C40.6462 248.868 40.0342 247.236 37.4422 247.236C34.8742 247.236 34.2622 248.868 34.2622 251.16C34.2622 253.452 34.8622 255.084 37.4422 255.084ZM35.5822 251.16C35.5822 249.432 35.8822 248.328 37.4422 248.328C39.0382 248.328 39.3262 249.432 39.3262 251.172C39.3262 252.888 39.0382 253.98 37.4422 253.98C35.8582 253.98 35.5822 252.888 35.5822 251.16ZM41.9824 255H43.2664V252.24L45.8584 255H47.6104L44.2384 251.76L47.3704 248.856H45.5824L43.2664 251.268V246.516H41.9824V255Z" fill="#F8F6F1"/>
<path opacity="0.5" d="M668.244 303.012L668.244 301.92L663.768 301.92L663.768 301.776C663.768 299.88 668.112 300.432 668.256 297.768C668.328 296.316 667.536 295.236 665.388 295.236C663.288 295.236 662.568 296.412 662.568 297.972L663.852 297.972C663.852 296.976 664.248 296.316 665.424 296.316C666.564 296.316 667.008 296.856 666.948 297.696C666.852 299.496 662.508 298.884 662.496 301.836L662.496 303L668.244 303.012ZM672.607 303.084C675.199 303.084 675.811 301.452 675.811 299.172C675.811 296.868 675.199 295.236 672.607 295.236C670.039 295.236 669.427 296.868 669.427 299.16C669.427 301.452 670.027 303.084 672.607 303.084ZM670.747 299.16C670.747 297.432 671.047 296.328 672.607 296.328C674.203 296.328 674.491 297.432 674.491 299.172C674.491 300.888 674.203 301.98 672.607 301.98C671.023 301.98 670.747 300.888 670.747 299.16ZM682.763 303.012L682.763 301.92L678.287 301.92L678.287 301.776C678.287 299.88 682.631 300.432 682.775 297.768C682.847 296.316 682.055 295.236 679.907 295.236C677.807 295.236 677.087 296.412 677.087 297.972L678.371 297.972C678.371 296.976 678.767 296.316 679.943 296.316C681.083 296.316 681.527 296.856 681.467 297.696C681.371 299.496 677.027 298.884 677.015 301.836L677.015 303L682.763 303.012ZM684.781 303L686.101 303L686.101 295.32L684.817 295.32L683.317 295.5L683.317 296.4L684.781 296.4L684.781 303Z" fill="#F8F6F1"/>
<path opacity="0.5" d="M574.244 303.012L574.244 301.92L569.768 301.92L569.768 301.776C569.768 299.88 574.112 300.432 574.256 297.768C574.328 296.316 573.536 295.236 571.388 295.236C569.288 295.236 568.568 296.412 568.568 297.972L569.852 297.972C569.852 296.976 570.248 296.316 571.424 296.316C572.564 296.316 573.008 296.856 572.948 297.696C572.852 299.496 568.508 298.884 568.496 301.836L568.496 303L574.244 303.012ZM578.607 303.084C581.199 303.084 581.811 301.452 581.811 299.172C581.811 296.868 581.199 295.236 578.607 295.236C576.039 295.236 575.427 296.868 575.427 299.16C575.427 301.452 576.027 303.084 578.607 303.084ZM576.747 299.16C576.747 297.432 577.047 296.328 578.607 296.328C580.203 296.328 580.491 297.432 580.491 299.172C580.491 300.888 580.203 301.98 578.607 301.98C577.023 301.98 576.747 300.888 576.747 299.16ZM588.763 303.012L588.763 301.92L584.287 301.92L584.287 301.776C584.287 299.88 588.631 300.432 588.775 297.768C588.847 296.316 588.055 295.236 585.907 295.236C583.807 295.236 583.087 296.412 583.087 297.972L584.371 297.972C584.371 296.976 584.767 296.316 585.943 296.316C587.083 296.316 587.527 296.856 587.467 297.696C587.371 299.496 583.027 298.884 583.015 301.836L583.015 303L588.763 303.012ZM593.126 303.084C595.718 303.084 596.33 301.452 596.33 299.172C596.33 296.868 595.718 295.236 593.126 295.236C590.558 295.236 589.946 296.868 589.946 299.16C589.946 301.452 590.546 303.084 593.126 303.084ZM591.266 299.16C591.266 297.432 591.566 296.328 593.126 296.328C594.722 296.328 595.01 297.432 595.01 299.172C595.01 300.888 594.722 301.98 593.126 301.98C591.542 301.98 591.266 300.888 591.266 299.16Z" fill="#F8F6F1"/>
<path opacity="0.5" d="M485.244 303.012L485.244 301.92L480.768 301.92L480.768 301.776C480.768 299.88 485.112 300.432 485.256 297.768C485.328 296.316 484.536 295.236 482.388 295.236C480.288 295.236 479.568 296.412 479.568 297.972L480.852 297.972C480.852 296.976 481.248 296.316 482.424 296.316C483.564 296.316 484.008 296.856 483.948 297.696C483.852 299.496 479.508 298.884 479.496 301.836L479.496 303L485.244 303.012ZM489.607 303.084C492.199 303.084 492.811 301.452 492.811 299.172C492.811 296.868 492.199 295.236 489.607 295.236C487.039 295.236 486.427 296.868 486.427 299.16C486.427 301.452 487.027 303.084 489.607 303.084ZM487.747 299.16C487.747 297.432 488.047 296.328 489.607 296.328C491.203 296.328 491.491 297.432 491.491 299.172C491.491 300.888 491.203 301.98 489.607 301.98C488.023 301.98 487.747 300.888 487.747 299.16ZM494.826 303L496.146 303L496.146 295.32L494.862 295.32L493.362 295.5L493.362 296.4L494.826 296.4L494.826 303ZM500.605 303.084C502.765 303.084 503.761 301.98 503.761 299.148C503.761 296.58 503.125 295.236 500.605 295.236C498.481 295.236 497.629 296.352 497.629 297.756C497.629 299.532 498.973 300.156 500.389 300.156C501.745 300.156 502.345 299.568 502.489 299.028C502.525 300.732 502.273 302.016 500.605 302.016C499.489 302.016 498.925 301.572 498.925 300.588L497.641 300.588C497.641 302.388 498.709 303.084 500.605 303.084ZM498.925 297.756C498.925 296.832 499.561 296.292 500.593 296.292C501.841 296.292 502.369 296.976 502.369 297.756C502.369 298.488 501.889 299.1 500.701 299.1C499.345 299.1 498.925 298.512 498.925 297.756Z" fill="#F8F6F1"/>
<path opacity="0.5" d="M393.24 303.012L393.24 301.92L388.764 301.92L388.764 301.776C388.764 299.88 393.108 300.432 393.252 297.768C393.324 296.316 392.532 295.236 390.384 295.236C388.284 295.236 387.564 296.412 387.564 297.972L388.848 297.972C388.848 296.976 389.244 296.316 390.42 296.316C391.56 296.316 392.004 296.856 391.944 297.696C391.848 299.496 387.504 298.884 387.492 301.836L387.492 303L393.24 303.012ZM397.603 303.084C400.195 303.084 400.807 301.452 400.807 299.172C400.807 296.868 400.195 295.236 397.603 295.236C395.035 295.236 394.423 296.868 394.423 299.16C394.423 301.452 395.023 303.084 397.603 303.084ZM395.743 299.16C395.743 297.432 396.043 296.328 397.603 296.328C399.199 296.328 399.487 297.432 399.487 299.172C399.487 300.888 399.199 301.98 397.603 301.98C396.019 301.98 395.743 300.888 395.743 299.16ZM402.822 303L404.142 303L404.142 295.32L402.858 295.32L401.358 295.5L401.358 296.4L402.822 296.4L402.822 303ZM408.818 303.084C411.362 303.084 411.962 301.992 411.962 300.816C411.962 299.988 411.518 299.208 410.522 298.908C411.374 298.644 411.782 298.044 411.782 297.204C411.782 296.136 411.122 295.236 408.806 295.236C406.465 295.236 405.782 296.064 405.782 297.324C405.782 298.176 406.106 298.8 407.066 299.112C406.022 299.448 405.626 300.168 405.626 300.948C405.626 301.944 406.226 303.084 408.818 303.084ZM406.922 300.792C406.922 300.156 407.306 299.496 408.806 299.496C410.282 299.496 410.666 300.156 410.666 300.792C410.666 301.452 410.27 302.004 408.818 302.004C407.366 302.004 406.922 301.452 406.922 300.792ZM407.09 297.432C407.09 296.832 407.246 296.304 408.806 296.304C410.378 296.304 410.522 296.832 410.522 297.432C410.522 298.008 410.342 298.56 408.806 298.56C407.258 298.56 407.09 298.008 407.09 297.432Z" fill="#F8F6F1"/>
<path opacity="0.5" d="M304.244 303.014L304.244 301.922L299.768 301.922L299.768 301.778C299.768 299.882 304.112 300.434 304.256 297.77C304.328 296.318 303.536 295.238 301.388 295.238C299.288 295.238 298.568 296.414 298.568 297.974L299.852 297.974C299.852 296.978 300.248 296.318 301.424 296.318C302.564 296.318 303.008 296.858 302.948 297.698C302.852 299.498 298.508 298.886 298.496 301.838L298.496 303.002L304.244 303.014ZM308.607 303.086C311.199 303.086 311.811 301.454 311.811 299.174C311.811 296.87 311.199 295.238 308.607 295.238C306.039 295.238 305.427 296.87 305.427 299.162C305.427 301.454 306.027 303.086 308.607 303.086ZM306.747 299.162C306.747 297.434 307.047 296.33 308.607 296.33C310.203 296.33 310.491 297.434 310.491 299.174C310.491 300.89 310.203 301.982 308.607 301.982C307.023 301.982 306.747 300.89 306.747 299.162ZM313.826 303.002L315.146 303.002L315.146 295.322L313.862 295.322L312.362 295.502L312.362 296.402L313.826 296.402L313.826 303.002ZM316.965 303.002L318.393 303.002L321.765 296.558L321.765 295.322L316.353 295.322L316.353 296.402L320.529 296.402L316.965 303.002Z" fill="#F8F6F1"/>
<path opacity="0.5" d="M212.244 303.012L212.244 301.92L207.768 301.92L207.768 301.776C207.768 299.88 212.112 300.432 212.256 297.768C212.328 296.316 211.536 295.236 209.388 295.236C207.288 295.236 206.568 296.412 206.568 297.972L207.852 297.972C207.852 296.976 208.248 296.316 209.424 296.316C210.564 296.316 211.008 296.856 210.948 297.696C210.852 299.496 206.508 298.884 206.496 301.836L206.496 303L212.244 303.012ZM216.607 303.084C219.199 303.084 219.811 301.452 219.811 299.172C219.811 296.868 219.199 295.236 216.607 295.236C214.039 295.236 213.427 296.868 213.427 299.16C213.427 301.452 214.027 303.084 216.607 303.084ZM214.747 299.16C214.747 297.432 215.047 296.328 216.607 296.328C218.203 296.328 218.491 297.432 218.491 299.172C218.491 300.888 218.203 301.98 216.607 301.98C215.023 301.98 214.747 300.888 214.747 299.16ZM221.826 303L223.146 303L223.146 295.32L221.862 295.32L220.362 295.5L220.362 296.4L221.826 296.4L221.826 303ZM227.833 303.084C229.945 303.084 230.809 301.92 230.809 300.54C230.809 298.752 229.453 298.14 228.049 298.14C226.681 298.14 226.045 298.716 225.901 299.256C225.865 297.54 226.117 296.316 227.749 296.316C228.889 296.316 229.345 296.748 229.345 297.696L230.641 297.696C230.641 295.932 229.645 295.236 227.749 295.236C225.589 295.236 224.629 296.388 224.629 299.148C224.629 301.716 225.301 303.084 227.833 303.084ZM226.021 300.54C226.021 299.796 226.549 299.172 227.749 299.172C229.093 299.172 229.513 299.772 229.513 300.54C229.513 301.452 228.865 302.016 227.845 302.016C226.585 302.016 226.021 301.32 226.021 300.54Z" fill="#F8F6F1"/>
<path opacity="0.5" d="M121.244 303.012V301.92H116.768V301.776C116.768 299.88 121.112 300.432 121.256 297.768C121.328 296.316 120.536 295.236 118.388 295.236C116.288 295.236 115.568 296.412 115.568 297.972H116.852C116.852 296.976 117.248 296.316 118.424 296.316C119.564 296.316 120.008 296.856 119.948 297.696C119.852 299.496 115.508 298.884 115.496 301.836V303L121.244 303.012ZM125.607 303.084C128.199 303.084 128.811 301.452 128.811 299.172C128.811 296.868 128.199 295.236 125.607 295.236C123.039 295.236 122.427 296.868 122.427 299.16C122.427 301.452 123.027 303.084 125.607 303.084ZM123.747 299.16C123.747 297.432 124.047 296.328 125.607 296.328C127.203 296.328 127.491 297.432 127.491 299.172C127.491 300.888 127.203 301.98 125.607 301.98C124.023 301.98 123.747 300.888 123.747 299.16ZM130.826 303H132.146V295.32H130.862L129.362 295.5V296.4H130.826V303ZM136.833 303.084C138.945 303.084 139.809 301.92 139.809 300.54C139.809 298.752 138.453 298.14 137.049 298.14C135.681 298.14 135.045 298.716 134.901 299.256C134.865 297.54 135.117 296.316 136.749 296.316C137.889 296.316 138.345 296.748 138.345 297.696H139.641C139.641 295.932 138.645 295.236 136.749 295.236C134.589 295.236 133.629 296.388 133.629 299.148C133.629 301.716 134.301 303.084 136.833 303.084ZM135.021 300.54C135.021 299.796 135.549 299.172 136.749 299.172C138.093 299.172 138.513 299.772 138.513 300.54C138.513 301.452 137.865 302.016 136.845 302.016C135.585 302.016 135.021 301.32 135.021 300.54Z" fill="#F8F6F1"/>
</svg>
