<svg width="50" height="81" viewBox="0 0 50 81" fill="none" xmlns="http://www.w3.org/2000/svg">
<path d="M50 51.6797C50 55.8281 48.2345 59.3789 44.7036 62.332C41.2433 65.2148 36.5825 67.0078 30.7212 67.7109V81H20.5521V67.7109C6.71089 66.4453 -0.139097 59.5898 0.00213995 47.1445H11.1245C11.1245 55.0898 16.0678 59.0625 25.9544 59.0625C30.3328 59.0625 33.5459 58.3945 35.5938 57.0586C37.6418 55.7227 38.7364 54.1406 38.8776 52.3125C39.0188 50.2031 37.8183 48.5508 35.2761 47.3555C32.8044 46.1602 29.6972 45.2461 25.9544 44.6133C22.2823 43.9805 18.5748 43.2422 14.832 42.3984C11.0892 41.5547 7.8761 40.043 5.1926 37.8633C2.5091 35.6836 1.13204 32.8008 1.06142 29.2148C0.990798 24.7148 2.5444 20.9883 5.72223 18.0352C8.97068 15.082 13.914 13.3242 20.5521 12.7617V0H30.7212V12.9727C43.0088 14.4492 49.1526 21.0234 49.1526 32.6953H38.0302C37.8183 28.9688 36.6884 26.1562 34.6405 24.2578C32.5926 22.3594 29.2029 21.4102 24.4714 21.4102C20.0225 21.4102 16.8446 22.1133 14.9379 23.5195C13.0312 24.8555 12.1485 26.5781 12.2898 28.6875C12.3604 30.4453 13.7021 31.8516 16.315 32.9062C18.9279 33.8906 22.0704 34.6992 25.7426 35.332C29.4147 35.9648 33.0869 36.7734 36.759 37.7578C40.4312 38.6719 43.5384 40.3242 46.0807 42.7148C48.6936 45.0352 50 48.0234 50 51.6797Z" fill="#583BAC"/>
</svg>
