<svg width="46" height="51" viewBox="0 0 46 51" fill="none" xmlns="http://www.w3.org/2000/svg">
<g clip-path="url(#clip0_2904_1248)">
<g clip-path="url(#clip1_2904_1248)">
<path d="M0.447321 10.1149C5.67528 24.5864 13.0692 38.1808 22.3765 50.4336L45.4553 32.9031C37.9217 22.9853 31.9369 11.9817 27.7052 0.268029L0.447321 10.1149Z" fill="#583BAC"/>
<path d="M67.9939 -109.507C93.478 -169.961 163.145 -198.31 223.6 -172.826C284.055 -147.342 312.404 -77.6747 286.92 -17.2202C261.436 43.2342 191.769 71.5831 131.314 46.0988C70.8592 20.6145 42.5098 -49.0526 67.9939 -109.507ZM232.876 -40.0022C245.778 -70.609 231.425 -105.88 200.818 -118.782C170.211 -131.684 134.94 -117.332 122.038 -86.725C109.136 -56.1182 123.489 -20.8473 154.096 -7.94511C184.703 4.95704 219.974 -9.39541 232.876 -40.0022Z" fill="#F8F6F1"/>
<path d="M131.314 46.0988C156.639 56.7743 184.882 58.3386 211.231 50.525C237.58 42.7115 260.404 26.0036 275.815 3.2482C291.226 -19.5072 298.27 -46.9022 295.747 -74.269C293.224 -101.636 281.289 -127.281 261.978 -146.835C242.666 -166.39 217.171 -178.643 189.838 -181.507C162.504 -184.372 135.024 -177.67 112.077 -162.544C89.1314 -147.419 72.1399 -124.805 63.9982 -98.5556C55.8564 -72.3065 57.0681 -44.0463 67.4269 -18.5903L121.694 -40.6725C116.444 -53.5736 115.83 -67.8958 119.956 -81.1989C124.082 -94.502 132.694 -105.963 144.323 -113.628C155.952 -121.294 169.879 -124.691 183.732 -123.239C197.584 -121.787 210.505 -115.577 220.292 -105.667C230.079 -95.757 236.128 -82.76 237.406 -68.8905C238.685 -55.021 235.115 -41.1372 227.305 -29.6047C219.495 -18.0723 207.927 -9.60475 194.574 -5.64484C181.22 -1.68494 166.906 -2.4777 154.072 -7.88805L131.314 46.0988Z" fill="#F8B940"/>
<path d="M131.314 46.0988C152.964 55.2251 176.834 57.7266 199.905 53.287C222.977 48.8473 244.213 37.6659 260.93 21.1568C277.646 4.64761 289.092 -16.4478 293.819 -39.4619C298.546 -62.476 296.343 -86.3751 287.487 -108.137C278.632 -129.899 263.522 -148.546 244.069 -161.721C224.615 -174.895 201.692 -182.005 178.198 -182.152C154.704 -182.299 131.694 -175.475 112.077 -162.544C92.4613 -149.614 77.1201 -131.157 67.9939 -109.507L121.982 -86.7487C126.607 -97.7205 134.382 -107.074 144.323 -113.628C154.265 -120.181 165.926 -123.639 177.833 -123.565C189.739 -123.49 201.357 -119.887 211.215 -113.21C221.074 -106.533 228.732 -97.0831 233.219 -86.0543C237.707 -75.0256 238.824 -62.9138 236.428 -51.2504C234.033 -39.5871 228.232 -28.8961 219.76 -20.5294C211.289 -12.1627 200.526 -6.4961 188.834 -4.24613C177.141 -1.99615 165.044 -3.26389 154.072 -7.88901L131.314 46.0988Z" fill="#583BAC"/>
</g>
</g>
<defs>
<clipPath id="clip0_2904_1248">
<rect width="46" height="51" fill="white"/>
</clipPath>
<clipPath id="clip1_2904_1248">
<rect width="340" height="291.488" fill="white" transform="translate(220.301 141.668) rotate(-157.143)"/>
</clipPath>
</defs>
</svg>
